<svg width="70" height="70" viewBox="0 0 70 70" fill="none" xmlns="http://www.w3.org/2000/svg">
<rect width="70" height="70" fill="#231F1F"/>
<path d="M26.21 45.18C24.65 45.18 23.15 44.93 21.71 44.43C20.29 43.93 19.19 43.27 18.41 42.45L19.28 40.74C20.04 41.5 21.05 42.12 22.31 42.6C23.57 43.06 24.87 43.29 26.21 43.29C28.09 43.29 29.5 42.95 30.44 42.27C31.38 41.57 31.85 40.67 31.85 39.57C31.85 38.73 31.59 38.06 31.07 37.56C30.57 37.06 29.95 36.68 29.21 36.42C28.47 36.14 27.44 35.84 26.12 35.52C24.54 35.12 23.28 34.74 22.34 34.38C21.4 34 20.59 33.43 19.91 32.67C19.25 31.91 18.92 30.88 18.92 29.58C18.92 28.52 19.2 27.56 19.76 26.7C20.32 25.82 21.18 25.12 22.34 24.6C23.5 24.08 24.94 23.82 26.66 23.82C27.86 23.82 29.03 23.99 30.17 24.33C31.33 24.65 32.33 25.1 33.17 25.68L32.42 27.45C31.54 26.87 30.6 26.44 29.6 26.16C28.6 25.86 27.62 25.71 26.66 25.71C24.82 25.71 23.43 26.07 22.49 26.79C21.57 27.49 21.11 28.4 21.11 29.52C21.11 30.36 21.36 31.04 21.86 31.56C22.38 32.06 23.02 32.45 23.78 32.73C24.56 32.99 25.6 33.28 26.9 33.6C28.44 33.98 29.68 34.36 30.62 34.74C31.58 35.1 32.39 35.66 33.05 36.42C33.71 37.16 34.04 38.17 34.04 39.45C34.04 40.51 33.75 41.48 33.17 42.36C32.61 43.22 31.74 43.91 30.56 44.43C29.38 44.93 27.93 45.18 26.21 45.18ZM38.877 24H41.097V43.08H52.857V45H38.877V24Z" fill="white"/>
</svg>
