<?xml version="1.0" encoding="utf-8"?>
<!-- Svg Vector Icons : http://www.onlinewebfonts.com/icon -->
<!DOCTYPE svg PUBLIC "-//W3C//DTD SVG 1.1//EN" "http://www.w3.org/Graphics/SVG/1.1/DTD/svg11.dtd">
<svg version="1.1" xmlns="http://www.w3.org/2000/svg" xmlns:xlink="http://www.w3.org/1999/xlink" x="0px" y="0px" viewBox="0 0 1000 1000" enable-background="new 0 0 1000 1000" xml:space="preserve">
<metadata> Svg Vector Icons : http://www.onlinewebfonts.com/icon </metadata>
<g><path d="M271.3,794H140.7c-18,0-32.7-14.7-32.7-32.7V108c0-18,14.7-32.7,32.7-32.7h588c18,0,32.7,14.7,32.7,32.7v196c0,18,14.6,32.7,32.7,32.7c18,0,32.7-14.6,32.7-32.7V108c0-54-44-98-98-98h-588c-54,0-98,44-98,98v653.3c0,54,44,98,98,98h130.7c18,0,32.7-14.6,32.7-32.7C304,808.6,289.4,794,271.3,794z"/><path d="M206,206c-18,0-32.7,14.6-32.7,32.7c0,18,14.6,32.7,32.7,32.7h457.3c18,0,32.7-14.6,32.7-32.7c0-18-14.6-32.7-32.7-32.7H206z"/><path d="M336.7,402H206c-18,0-32.7,14.6-32.7,32.7c0,18,14.6,32.7,32.7,32.7h130.7c18,0,32.7-14.6,32.7-32.7C369.3,416.6,354.7,402,336.7,402z"/><path d="M271.3,598H206c-18,0-32.7,14.6-32.7,32.7s14.6,32.7,32.7,32.7h65.3c18,0,32.7-14.6,32.7-32.7S289.4,598,271.3,598z"/><path d="M947.8,934.2L836.3,822.7c34.4-44.2,55.7-99,55.7-159.3C892,519.2,774.8,402,630.7,402c-144.1,0-261.3,117.2-261.3,261.3c0,144.1,117.2,261.3,261.3,261.3c60.3,0,115.2-21.3,159.4-55.7l111.5,111.5c6.4,6.4,14.8,9.6,23.1,9.6c8.4,0,16.7-3.2,23.1-9.6C960.5,967.7,960.5,947,947.8,934.2z M630.7,859.3c-108.1,0-196-87.9-196-196c0-108.1,87.9-196,196-196s196,87.9,196,196C826.7,771.4,738.7,859.3,630.7,859.3z"/></g>
</svg>