<svg width="214" height="70" viewBox="0 0 214 70" fill="none" xmlns="http://www.w3.org/2000/svg">
<rect width="70" height="70" fill="#231F1F"/>
<path d="M26.21 45.18C24.65 45.18 23.15 44.93 21.71 44.43C20.29 43.93 19.19 43.27 18.41 42.45L19.28 40.74C20.04 41.5 21.05 42.12 22.31 42.6C23.57 43.06 24.87 43.29 26.21 43.29C28.09 43.29 29.5 42.95 30.44 42.27C31.38 41.57 31.85 40.67 31.85 39.57C31.85 38.73 31.59 38.06 31.07 37.56C30.57 37.06 29.95 36.68 29.21 36.42C28.47 36.14 27.44 35.84 26.12 35.52C24.54 35.12 23.28 34.74 22.34 34.38C21.4 34 20.59 33.43 19.91 32.67C19.25 31.91 18.92 30.88 18.92 29.58C18.92 28.52 19.2 27.56 19.76 26.7C20.32 25.82 21.18 25.12 22.34 24.6C23.5 24.08 24.94 23.82 26.66 23.82C27.86 23.82 29.03 23.99 30.17 24.33C31.33 24.65 32.33 25.1 33.17 25.68L32.42 27.45C31.54 26.87 30.6 26.44 29.6 26.16C28.6 25.86 27.62 25.71 26.66 25.71C24.82 25.71 23.43 26.07 22.49 26.79C21.57 27.49 21.11 28.4 21.11 29.52C21.11 30.36 21.36 31.04 21.86 31.56C22.38 32.06 23.02 32.45 23.78 32.73C24.56 32.99 25.6 33.28 26.9 33.6C28.44 33.98 29.68 34.36 30.62 34.74C31.58 35.1 32.39 35.66 33.05 36.42C33.71 37.16 34.04 38.17 34.04 39.45C34.04 40.51 33.75 41.48 33.17 42.36C32.61 43.22 31.74 43.91 30.56 44.43C29.38 44.93 27.93 45.18 26.21 45.18ZM38.877 24H41.097V43.08H52.857V45H38.877V24Z" fill="white"/>
<path d="M94.825 44.3C93.4417 44.3 92.1 44.1167 90.8 43.75C89.5167 43.3667 88.4833 42.875 87.7 42.275L89.075 39.225C89.825 39.775 90.7167 40.2167 91.75 40.55C92.7833 40.8833 93.8167 41.05 94.85 41.05C96 41.05 96.85 40.8833 97.4 40.55C97.95 40.2 98.225 39.7417 98.225 39.175C98.225 38.7583 98.0583 38.4167 97.725 38.15C97.4083 37.8667 96.9917 37.6417 96.475 37.475C95.975 37.3083 95.2917 37.125 94.425 36.925C93.0917 36.6083 92 36.2917 91.15 35.975C90.3 35.6583 89.5667 35.15 88.95 34.45C88.35 33.75 88.05 32.8167 88.05 31.65C88.05 30.6333 88.325 29.7167 88.875 28.9C89.425 28.0667 90.25 27.4083 91.35 26.925C92.4667 26.4417 93.825 26.2 95.425 26.2C96.5417 26.2 97.6333 26.3333 98.7 26.6C99.7667 26.8667 100.7 27.25 101.5 27.75L100.25 30.825C98.6333 29.9083 97.0167 29.45 95.4 29.45C94.2667 29.45 93.425 29.6333 92.875 30C92.3417 30.3667 92.075 30.85 92.075 31.45C92.075 32.05 92.3833 32.5 93 32.8C93.6333 33.0833 94.5917 33.3667 95.875 33.65C97.2083 33.9667 98.3 34.2833 99.15 34.6C100 34.9167 100.725 35.4167 101.325 36.1C101.942 36.7833 102.25 37.7083 102.25 38.875C102.25 39.875 101.967 40.7917 101.4 41.625C100.85 42.4417 100.017 43.0917 98.9 43.575C97.7833 44.0583 96.425 44.3 94.825 44.3ZM112.692 30.35C113.942 30.35 115.076 30.6417 116.092 31.225C117.126 31.7917 117.934 32.6 118.517 33.65C119.101 34.6833 119.392 35.8917 119.392 37.275C119.392 38.6583 119.101 39.875 118.517 40.925C117.934 41.9583 117.126 42.7667 116.092 43.35C115.076 43.9167 113.942 44.2 112.692 44.2C110.976 44.2 109.626 43.6583 108.642 42.575V48.85H104.742V30.55H108.467V32.1C109.434 30.9333 110.842 30.35 112.692 30.35ZM112.017 41C113.017 41 113.834 40.6667 114.467 40C115.117 39.3167 115.442 38.4083 115.442 37.275C115.442 36.1417 115.117 35.2417 114.467 34.575C113.834 33.8917 113.017 33.55 112.017 33.55C111.017 33.55 110.192 33.8917 109.542 34.575C108.909 35.2417 108.592 36.1417 108.592 37.275C108.592 38.4083 108.909 39.3167 109.542 40C110.192 40.6667 111.017 41 112.017 41ZM128.403 44.2C126.986 44.2 125.711 43.9083 124.578 43.325C123.461 42.725 122.586 41.9 121.953 40.85C121.32 39.8 121.003 38.6083 121.003 37.275C121.003 35.9417 121.32 34.75 121.953 33.7C122.586 32.65 123.461 31.8333 124.578 31.25C125.711 30.65 126.986 30.35 128.403 30.35C129.82 30.35 131.086 30.65 132.203 31.25C133.32 31.8333 134.195 32.65 134.828 33.7C135.461 34.75 135.778 35.9417 135.778 37.275C135.778 38.6083 135.461 39.8 134.828 40.85C134.195 41.9 133.32 42.725 132.203 43.325C131.086 43.9083 129.82 44.2 128.403 44.2ZM128.403 41C129.403 41 130.22 40.6667 130.853 40C131.503 39.3167 131.828 38.4083 131.828 37.275C131.828 36.1417 131.503 35.2417 130.853 34.575C130.22 33.8917 129.403 33.55 128.403 33.55C127.403 33.55 126.578 33.8917 125.928 34.575C125.278 35.2417 124.953 36.1417 124.953 37.275C124.953 38.4083 125.278 39.3167 125.928 40C126.578 40.6667 127.403 41 128.403 41ZM142.11 32.325C142.577 31.675 143.202 31.1833 143.985 30.85C144.785 30.5167 145.702 30.35 146.735 30.35V33.95C146.302 33.9167 146.01 33.9 145.86 33.9C144.743 33.9 143.868 34.2167 143.235 34.85C142.602 35.4667 142.285 36.4 142.285 37.65V44H138.385V30.55H142.11V32.325ZM158.193 43.35C157.809 43.6333 157.334 43.85 156.768 44C156.218 44.1333 155.634 44.2 155.018 44.2C153.418 44.2 152.176 43.7917 151.293 42.975C150.426 42.1583 149.993 40.9583 149.993 39.375V33.85H147.918V30.85H149.993V27.575H153.893V30.85H157.243V33.85H153.893V39.325C153.893 39.8917 154.034 40.3333 154.318 40.65C154.618 40.95 155.034 41.1 155.568 41.1C156.184 41.1 156.709 40.9333 157.143 40.6L158.193 43.35ZM167.737 26.5H171.787V40.7H180.562V44H167.737V26.5ZM182.55 30.55H186.45V44H182.55V30.55ZM184.5 28.675C183.783 28.675 183.2 28.4667 182.75 28.05C182.3 27.6333 182.075 27.1167 182.075 26.5C182.075 25.8833 182.3 25.3667 182.75 24.95C183.2 24.5333 183.783 24.325 184.5 24.325C185.217 24.325 185.8 24.525 186.25 24.925C186.7 25.325 186.925 25.825 186.925 26.425C186.925 27.075 186.7 27.6167 186.25 28.05C185.8 28.4667 185.217 28.675 184.5 28.675ZM194.345 30.85H197.795V33.85H194.445V44H190.545V33.85H188.47V30.85H190.545V30.25C190.545 28.7167 190.995 27.5 191.895 26.6C192.811 25.7 194.095 25.25 195.745 25.25C196.328 25.25 196.878 25.3167 197.395 25.45C197.928 25.5667 198.37 25.7417 198.72 25.975L197.695 28.8C197.245 28.4833 196.72 28.325 196.12 28.325C194.936 28.325 194.345 28.975 194.345 30.275V30.85ZM212.742 37.325C212.742 37.375 212.717 37.725 212.667 38.375H202.492C202.675 39.2083 203.108 39.8667 203.792 40.35C204.475 40.8333 205.325 41.075 206.342 41.075C207.042 41.075 207.658 40.975 208.192 40.775C208.742 40.5583 209.25 40.225 209.717 39.775L211.792 42.025C210.525 43.475 208.675 44.2 206.242 44.2C204.725 44.2 203.383 43.9083 202.217 43.325C201.05 42.725 200.15 41.9 199.517 40.85C198.883 39.8 198.567 38.6083 198.567 37.275C198.567 35.9583 198.875 34.775 199.492 33.725C200.125 32.6583 200.983 31.8333 202.067 31.25C203.167 30.65 204.392 30.35 205.742 30.35C207.058 30.35 208.25 30.6333 209.317 31.2C210.383 31.7667 211.217 32.5833 211.817 33.65C212.433 34.7 212.742 35.925 212.742 37.325ZM205.767 33.3C204.883 33.3 204.142 33.55 203.542 34.05C202.942 34.55 202.575 35.2333 202.442 36.1H209.067C208.933 35.25 208.567 34.575 207.967 34.075C207.367 33.5583 206.633 33.3 205.767 33.3Z" fill="black"/>
</svg>
