<?xml version="1.0" ?><!DOCTYPE svg  PUBLIC '-//W3C//DTD SVG 1.1//EN'  'http://www.w3.org/Graphics/SVG/1.1/DTD/svg11.dtd'><svg enable-background="new 0 0 512 512" height="512px" id="Calque_1" version="1.1" viewBox="0 0 512 512" width="512px" xml:space="preserve" xmlns="http://www.w3.org/2000/svg" xmlns:xlink="http://www.w3.org/1999/xlink"><g><path d="M118.07,103.915c-5.094,0.056-9.538-0.255-7.621-0.395c-10.377,0.377-10.599-0.052-11.943,0.678   c-6.66,0.358-13.765-0.138-6.188-0.434l-19.203,0.446l11.482,0.113c-1.564,0.303-6.151,0.258-10.802,0.225   c-1.136-0.005-2.275-0.01-3.374-0.015c-0.438,0.007-0.816,0.17-1.102,0.417c-0.588,0.513-0.603,1.188-0.42,1.465   c0,0-0.009-0.109,0.024-0.282c0.029-0.173,0.101-0.417,0.287-0.668c0.184-0.249,0.487-0.485,0.853-0.583   c0.067-0.023,0.243-0.044,0.234-0.045c-0.034-0.002,0.058-0.006,0.141-0.007l0.059-0.002l0.03,0l0.015,0l0.007,0   c0.021,0-0.161,0.002-0.08,0.001h0.119l0.478-0.001c0.639-0.002,1.289-0.004,1.938-0.005c5.197-0.015,10.393-0.03,10.393-0.03   l-1.039,0.201c4.733-0.217,13.926-0.126,17.131-0.041c-0.505,0.1-0.184,0.262-3.85,0.28c25.097,0.046,6.76-1.061,27.585-1.262   C121.919,103.984,120.302,103.975,118.07,103.915z" fill="#202020"/><path d="M139.389,105.4l8.754-0.761l14.687,0.196c0.167-0.263,10.866-0.475,3.622-0.706   c-1.417,0.042-4.216,0.12-6.477,0.096c1.639-0.567,19.531-0.283,15.215-0.857c-11.615,0.15-13.398,0.025-20.548,0.486   c-10.648-0.053-18.403-0.183-23.375-0.391c-3.161,0.086-3.605,0.435-7.621,0.504c0.889-0.007,1.706-0.014,2.728-0.022l0.433,0.853   c3.35-0.18,6.516-0.095,10.232-0.112l-17.192,0.997c5.543,0.799,22.436,0.33,29.185,0.662   C140.661,105.625,155.698,105.987,139.389,105.4z" fill="#202020"/><path d="M123.647,103.967c-0.111,0-0.294,0.001-0.422,0.002C123.352,103.969,123.535,103.968,123.647,103.967z" fill="#202020"/><path d="M134.762,347.805c2.595,2.574,3.5,3.193,3.945,3.495l-29.113-29.092c0.753,1.07,8.938,9.648,3.243,4.142   c2.322,2.674,10.081,10.133,11.398,11.022l-2.351-1.868c7.015,6.396,10.986,11.584,6.432,7.395l0.569,0.563l19.762,17.381   C141.898,353.954,142.986,356.001,134.762,347.805z" fill="#202020"/><path d="M122.753,112.973c5.333-0.078,5.988-0.159,5.382-0.242C126.224,112.793,124.408,112.865,122.753,112.973z" fill="#202020"/><path d="M153.267,364.903l6.19,5.444C157.028,368.119,154.847,366.207,153.267,364.903z" fill="#202020"/><path d="M107.298,330.272c-0.032,0.008-0.112-0.037,0.015,0.143l2.802,2.421c-0.039-0.039-0.051-0.051-0.066-0.066   C109.039,331.853,108.134,331.031,107.298,330.272z" fill="#202020"/><path d="M183.655,242.974c0.555-0.79,1.055-1.456,1.762-2.369C184.746,241.447,184.17,242.23,183.655,242.974z" fill="#202020"/><path d="M137.955,357.769l-13.297-12.58c1.894,1.555-4.398-4.636-1.475-2.108c-1.013-0.959-5.703-5.515-4.53-4.166   l2.651,2.628c-7.317-6.328-3.375-2.006-15.064-12.941c6.729,7.316,10.078,10.128,14.022,13.622   c1.287,1.235,2.364,2.271,3.454,3.317l11.45,10.067L137.955,357.769z" fill="#202020"/><path d="M377.728,109.001l0.2-0.054C377.744,108.966,377.711,108.984,377.728,109.001z" fill="#202020"/><path d="M378.728,108.723l-0.8,0.224C378.911,108.835,382.677,108.728,378.728,108.723z" fill="#202020"/><path d="M150.81,363.087c0.269,0.085,1.127,0.719,2.457,1.816l-4.62-4.061   C149.253,361.47,150.051,362.299,150.81,363.087z" fill="#202020"/><path d="M139.856,354.292l-10.97-10.83l-4.275-3.762C128.874,343.78,133.858,348.552,139.856,354.292z" fill="#202020"/><path d="M172.551,267.068c0.885-4.31,1.934-7.313,2.712-9.366c0.788-2.054,1.338-3.164,1.588-3.648   c0.528-0.958-0.102,0.597-0.821,2.736c-0.731,2.138-1.458,4.885-1.686,6.139c-0.196,1.265-0.126,0.977,1.132-2.794   c1.494-4.569,2.86-7.539,4.067-10.076c1.252-2.515,2.383-4.604,4.111-7.084c-2,2.826-3.266,5.029-4.173,6.634   c-0.887,1.619-1.441,2.628-1.775,3.237c-0.679,1.211-0.634,0.726-0.592,0.238c0.041-0.486,0.079-0.975-0.636,0.275   c-0.351,0.628-0.884,1.695-1.599,3.458c-0.702,1.765-1.598,4.229-2.43,7.688c0.123-2.042,1.319-7.12,3.813-12.464   c1.236-2.669,2.766-5.399,4.437-7.88c1.661-2.489,3.459-4.726,5.085-6.531c1.947-1.952,2.597-2.389,2.359-2.033   c-0.223,0.37-1.296,1.575-2.551,3.168c-1.262,1.587-2.695,3.57-3.792,5.347c-1.103,1.774-1.882,3.328-2.047,3.939   c1.405-2.451,2.526-4.104,3.362-5.323c0.839-1.217,1.409-1.994,1.849-2.614c0.885-1.237,1.232-1.863,2.726-3.774   c6.118-6.527,13.764-12.039,21.458-15.441c7.675-3.459,15.24-4.789,20.586-4.692c1.612-0.132,3.013-0.205,4.242-0.235   c1.126-0.033,2.095-0.061,2.945-0.085c1.671-0.057,2.876-0.123,3.928-0.196c2.102-0.145,3.585-0.316,6.935-0.496   c0.667-0.365-3.665-0.46-8.703-0.537c-1.259-0.019-2.563-0.039-3.844-0.058c-0.692-0.006-1.378-0.012-2.049-0.017   c-0.705,0.01-1.394,0.02-2.057,0.029c-2.654,0.081-4.9,0.271-6.14,0.315c1.021-0.099,3.011-0.186,2.449-0.021   c0,0-2.855,0.256-5.678,0.789c-2.828,0.502-5.596,1.289-5.596,1.289c10.645-2.342-1.425,0.677-6.619,3.175   c-1.937,0.799-4.748,2.18-6.89,3.39c-2.147,1.202-3.657,2.175-3.235,1.772c0,0,1.313-0.893,2.67-1.724   c1.358-0.829,2.756-1.593,2.756-1.593c-3.706,1.768-7.481,4.33-10.963,7.283c-3.493,2.95-6.694,6.274-9.573,9.49   c-0.433,0.232,1.635-2.308,1.908-2.736c-3.065,3.776-5.813,7.682-8.325,12.383c-2.489,4.695-4.796,10.208-6.212,17.197   c0,0,0.278-2.053,0.696-4.095c0.406-2.043,0.961-4.064,0.961-4.064c-0.797,2.772-1.795,6.424-2.484,10.689   c-0.348,2.132-0.627,4.412-0.789,6.793c-0.173,2.347-0.168,4.986-0.163,7.115c-0.01,9.005-0.172,18.731-0.383,26.694   c0.123-1.767,0.208-4.949,0.348-3.039c0.173,9.354-0.323,16.421-0.704,12.088c0.6,9.138-0.505,34.818,0.274,47.272l0.457,7.109   l0.057,0.889l0.029,0.444l0.014,0.203l0.014,0.031l0.114,0.279c0.076,0.202,0.152,0.438,0.228,0.707   c0.304,1.074,0.608,2.677,0.304,3.337c-0.338,0.242-1.185-0.025-2.541-0.803c-0.339-0.194-0.71-0.42-1.113-0.678l-0.634-0.418   l-1.382-1.165l-5.529-4.66c1.581,1.451,3.256,3.021,4.952,4.672c0.408,0.513,0.792,0.995,1.141,1.434   c0.087,0.108,0.171,0.213,0.254,0.315c0.04,0.06,0.078,0.117,0.116,0.173c0.077,0.114,0.149,0.221,0.215,0.318   c0.27,0.399,0.458,0.685,0.468,0.79c0.009,0.104-0.156,0.033-0.601-0.289c-0.112-0.083-0.241-0.18-0.389-0.291   c-0.075-0.058-0.154-0.119-0.239-0.185c-0.073-0.055-0.258-0.221-0.394-0.336c-0.594-0.518-1.314-1.146-2.175-1.898   c0.829,0.755,1.514,1.379,2.099,1.911c0.141,0.124,0.276,0.243,0.406,0.356c0.087,0.07,0.17,0.137,0.25,0.201   c0.159,0.123,0.306,0.235,0.442,0.342c0.544,0.409,0.929,0.658,1.349,0.956c0.844,0.6,1.795,1.36,4.296,3.843   c-1.599-1.176-2.514-1.161,2.653,4.211c0.005-0.354,0.014-0.845,0.022-1.373c-0.079-2.858-0.177-5.523-0.289-7.961   c-0.061-1.182-0.12-2.343-0.178-3.485c-0.066-1.729-0.132-3.432-0.196-5.111c-0.273-7.003-0.586-13.633-0.91-20.196   c-0.646-13.127-1.327-25.987-1.789-41.033c0.245-0.556,0.333-6.739,0.374-14.22c0.013-3.74,0.027-7.805,0.04-11.651   c0-1.844,0.009-3.982,0.144-5.883c0.126-1.914,0.325-3.689,0.575-5.246c-0.043,1.206-0.097,2.69-0.158,4.393   c-0.012,0.849-0.03,1.751-0.021,2.698c0.004,0.93,0.031,1.984,0.061,2.893c0.116,3.783,0.18,8.125,0.233,12.546   c0.01-2.774,0.024-6.55,0.039-10.519c0.003-0.995,0.006-2.003,0.01-3.011c0.008-1.086,0.04-2.171,0.099-3.241   c0.12-2.14,0.351-4.216,0.648-6.112c0,0-0.125-0.817-0.25-1.635C172.654,267.895,172.551,267.068,172.551,267.068z" fill="#202020"/><path d="M172.894,342.973c0.044-0.806,0.068-1.639,0.091-2.494C172.945,340.934,172.914,341.679,172.894,342.973z" fill="#202020"/><path d="M172.195,295.934c0.019,0.111,0.033,0.072,0.053,0.111c-0.012-0.928-0.025-1.855-0.038-2.806   C172.205,294.19,172.199,295.262,172.195,295.934z" fill="#202020"/><path d="M155.367,369.206c-1.435-1.271-2.495-2.209-3.93-3.479c0.859,0.807,1.936,1.818,2.973,2.793   C155.416,369.432,155.918,369.841,155.367,369.206z" fill="#202020"/><path d="M151.419,364.041l0.865,0.58c-0.57-0.593-0.97-1.01-1.474-1.534   C150.576,363.006,150.681,363.239,151.419,364.041z" fill="#202020"/><path d="M277.986,221.039l3.061-0.106C279.202,220.942,278.407,220.985,277.986,221.039z" fill="#202020"/><path d="M192.068,234.122c-2.197,2.065-3.213,3.306-3.816,4.059c-0.588,0.769-0.744,1.077-0.99,1.51   c-0.25,0.43-0.605,0.973-1.527,2.253c-0.904,1.291-2.419,3.298-4.559,6.933c0,0,0.632-1.064,1.307-2.102   c0.675-1.037,1.393-2.044,1.393-2.044c-1.67,2.519-3.481,5.632-5.109,9.186c-1.629,3.552-3.054,7.555-4.042,11.74   c-0.998,4.183-1.55,8.54-1.648,12.725c-0.007,0.521-0.014,1.04-0.021,1.555c0,0.484-0.001,0.965-0.001,1.442   c-0.001,0.954-0.001,1.895-0.002,2.817c0.001,1.846,0.002,3.62,0.003,5.294c-0.291-1.511-0.354,8.121-0.805,6.555   c0.106,9.154,0.207,18.22,0.672,22.937c-0.152,5.671,0.258,14.287,0.065,21.497c0.273-3.044,0.924,10.266,0.59-7.282   c0.037,1.416,0.1,0.527,0.138,1.928c0.381-11.305-0.265-15.838-0.274-25.575c0.269-5.821,0.435,9.521,0.543,4.027   c-0.125-6.08-0.044-15.619-0.059-23.537c-0.007-3.96-0.038-7.514-0.131-10.027c-0.094-2.637-0.099-4.22-0.375-4.019   c0.284-4.709,0.902-7.346,1.344-9.142c0.465-1.796,0.834-2.761,1.312-4.078c0.769-3.634,2.556-8.714,5.528-13.812   c2.937-5.113,7.064-10.166,11.506-14.165c4.425-4.029,9.092-7.011,12.596-8.941c3.503-1.942,5.812-2.952,5.644-3.278   c-2.539,1.05-5.813,2.611-9.139,4.706c-3.331,2.085-6.691,4.72-9.523,7.564L192.068,234.122z" fill="#202020"/><path d="M167.621,381.358c0.37,0.376,0.862,0.878,1.169,1.189C168.444,382.196,168.014,381.759,167.621,381.358z" fill="#202020"/><path d="M91.934,330.912l-3.922-2.646c-2.353-2.321-4.518-4.458-6.537-6.451c-0.504-0.499-0.999-0.989-1.485-1.472   c-0.249-0.247-0.495-0.491-0.739-0.733c-0.559-0.561-1.064-1.18-1.5-1.84c-1.761-2.653-2.32-5.869-1.763-8.767   c0.273-1.455,0.821-2.845,1.585-4.073c0.407-0.639,0.747-1.118,1.401-1.831l0.154-0.162l0.287-0.287l0.191-0.181   c0.258-0.237,0.524-0.467,0.804-0.68c2.229-1.737,5.027-2.58,7.698-2.477c2.697,0.104,5.246,1.079,7.316,2.851l0.407,0.364   l0.147,0.142l0.414,0.411l0.573,0.577l1.138,1.146c6.056,6.086,11.818,11.877,19.973,20.07c1.161,1.337-0.877-0.592-1.911-1.568   c11.566,11.419,28.628,28.75,37.288,36.823c3.652,3.661,13.049,13.465,9.228,10.019c0.913,0.867,1.892,1.796,2.904,2.756   c0.5,0.487,1.008,0.983,1.52,1.483l0.585,0.581l0.156,0.165c-0.018,0.097-0.091,0.089-0.203,0.018   c-0.026-0.02-0.057-0.041-0.089-0.064c-0.023-0.02-0.015-0.008-0.066-0.057c-0.067-0.063-0.136-0.13-0.206-0.197   c-0.279-0.272-0.584-0.57-0.895-0.873c-1.239-1.217-2.555-2.521-2.708-2.485c1.607,1.638,2.195,2.314,2.64,2.615   c-2.927-2.532,2.053,3.611-10.663-9.134c-4.393-5.467,8.892,8.768,6.573,5.266c-4.218-4.228-3.957-3.507-4.39-3.796   c-5.367-5.396-5.078-5.402-4.655-5.251c-2.246-1.878-8.758-8.901-11.884-11.471c-10.51-10.418,1.014,0.125-5.828-6.703l-4.539-3.34   l-11.25-11.478c-16.661-16.239,1.317,3.389-17.825-15.075c1.392,1.079,0.333-0.398-2.151-3.255   c-1.242-1.429-2.841-3.201-4.668-5.173l-0.345-0.371l-0.266-0.271l-0.045-0.046l-0.115-0.106l-0.235-0.211   c-0.557-0.482-1.094-0.854-1.719-1.201c-1.229-0.677-2.636-1.096-4.091-1.192c-1.455-0.097-2.963,0.13-4.374,0.701   c-0.705,0.285-1.383,0.655-2.011,1.1c-0.314,0.222-0.615,0.463-0.901,0.719l-0.21,0.195l-0.258,0.255   c-0.088,0.093-0.08,0.074-0.287,0.305c0.291-0.322,0.111-0.126,0.421-0.45c0.17-0.165,0.34-0.333,0.526-0.491   c0.366-0.321,0.769-0.623,1.202-0.9c0.864-0.557,1.86-0.997,2.935-1.275c2.144-0.556,4.652-0.415,6.932,0.691   c0.567,0.273,1.116,0.604,1.633,0.986c0.138,0.106,0.235,0.174,0.404,0.316l0.406,0.354l0.445,0.421   c0.466,0.445,0.94,0.899,1.422,1.36c0.961,0.921,1.95,1.868,2.951,2.827c3.997,3.841,8.16,7.897,11.451,11.367   c-9.06-9.999,13.171,13.059,8.764,7.576c-4.963-4.456-12.85-12.273-18.836-18.534l2.063,1.952   c-1.612-1.645-3.168-3.146-4.733-4.618c-0.786-0.732-1.569-1.463-2.361-2.201l-0.298-0.275l-0.256-0.242l-0.153-0.135   c-0.19-0.171-0.576-0.498-0.77-0.634c-0.236-0.179-0.483-0.344-0.734-0.504c-1.01-0.632-2.135-1.099-3.311-1.369   c-2.348-0.54-4.918-0.287-7.205,0.854c-1.139,0.562-2.201,1.358-3.07,2.298c-0.897,0.964-1.63,2.109-2.129,3.388   c-1,2.546-1.02,5.592,0.249,8.348c0.316,0.685,0.711,1.347,1.177,1.962c0.233,0.309,0.482,0.606,0.75,0.887l0.478,0.496   c0.52,0.543,1.054,1.101,1.604,1.674c4.485,4.447,3.479,3.779,2.554,3.134c1.935,1.844,3.768,3.59,5.118,4.877   C91.151,329.988,91.994,330.84,91.934,330.912z M82.079,321.307c0,0-0.37-0.377-0.924-0.943c-0.277-0.282-0.601-0.612-0.947-0.966   l-0.264-0.27c-0.162-0.172-0.327-0.346-0.492-0.521c-0.38-0.428-0.733-0.896-1.05-1.389c-1.294-1.98-1.784-4.357-1.737-6.089   c0.012-0.872,0.125-1.593,0.227-2.091c0.104-0.498,0.19-0.777,0.19-0.777c-0.674,2.084-0.781,5.14,0.718,8.062   c0.368,0.722,0.831,1.422,1.376,2.068c0.137,0.161,0.276,0.321,0.424,0.474l0.325,0.332l0.418,0.413   C80.907,320.163,81.49,320.732,82.079,321.307z" fill="#202020"/><path d="M257.559,105.289c-0.839-0.022-1.806-0.048-2.566-0.069C255.553,105.26,256.526,105.278,257.559,105.289z" fill="#202020"/><path d="M250.811,335.683l-3.48,3.441C248.702,337.794,249.813,336.688,250.811,335.683z" fill="#202020"/><path d="M180.052,369.649l-0.198-7.149C179.866,365.322,179.945,367.533,180.052,369.649z" fill="#202020"/><path d="M315.912,105.348l0.239,0.006c0.399-0.016,0.706-0.028,1.128-0.045L315.912,105.348z" fill="#202020"/><path d="M290.483,227.402c1.089,0.071,2.311,0.136,3.982,0.187C294.266,227.504,292.777,227.444,290.483,227.402z" fill="#202020"/><path d="M180.089,370.966c0.007-0.184,0.01-0.289,0.016-0.434c-0.017-0.277-0.035-0.583-0.053-0.883   L180.089,370.966z" fill="#202020"/><path d="M276.405,311.226c0.022,0.004,0.051,0.02,0.034,0.01c0.011-0.021-0.061,0.024-0.021-0.083l0.023-0.046   c0.004-0.007,0.011-0.017,0.012-0.021l-0.042,0.029l-0.17,0.118l-0.002,0.001v0.001c0.209,0.249-1.826-2.171-0.965-1.146   l-0.002,0.002l-0.005,0.005l-0.009,0.01l-0.018,0.019l-0.035,0.037l-0.07,0.075l-0.144,0.153l0.188-0.193l0.092-0.094l0.005-0.006   l0.002-0.001v-0.001c-0.855-1.021,1.168,1.389,0.96,1.141l0.003-0.003l0.014-0.009l0.026-0.019l0.053-0.037l0.104-0.072   c0.028-0.019-0.011,0.025-0.012,0.036c-0.018,0.036-0.038,0.088-0.024,0.078l0.04,0.028   C276.428,311.234,276.415,311.23,276.405,311.226z" fill="#202020"/><path d="M276.711,310.554c0.139,0.034,0.308,0.167,0.4,0.256c0,0-0.021-0.021-0.051-0.054   c-0.058-0.049-0.134-0.112-0.21-0.177c-0.014-0.004,0.027,0.038,0.03,0.041l-0.038-0.019c-0.024-0.011-0.047-0.02-0.066-0.028   C276.738,310.562,276.711,310.554,276.711,310.554z" fill="#202020"/><path d="M169.745,391.975L165,387.403C167.3,389.683,168.7,391.016,169.745,391.975z" fill="#202020"/><path d="M271,316.876c-0.243,0.299-0.487,0.597-0.642,0.805C270.985,317.017,271.256,316.676,271,316.876z" fill="#202020"/><path d="M215.691,102.763c0.15-0.001,0.311-0.002,0.4-0.003l0.167-0.099L215.691,102.763z" fill="#202020"/><path d="M199.671,103.997c-1.889,0.023-3.855,0.047-5.789,0.07C196.032,104.073,198.127,104.046,199.671,103.997z" fill="#202020"/><path d="M385.898,228.575c1.653,0.034,5.518-0.386,3.743,0.006c1.559-0.31,2.254-0.604,1.754-0.619   C390.892,227.927,389.204,228.206,385.898,228.575z" fill="#202020"/><path d="M247.81,97.458c-1.05,0.114-2.355,0.202-3.667,0.288C246.582,97.623,248.721,97.521,247.81,97.458z" fill="#202020"/><path d="M244.143,97.746c-1.205,0.064-2.494,0.134-3.572,0.191C241.827,97.883,243.032,97.819,244.143,97.746z" fill="#202020"/><path d="M341.81,235.799c-0.434-0.058-1.105-0.105-2.017-0.121C340.06,235.793,340.787,235.818,341.81,235.799z" fill="#202020"/><path d="M189.206,103.932c-1.039,0.202-26.208,0.641-5.039,0.744c-0.816,0.629-13.582,0.291-19.226,0.447   c4.1,0.147-2.039,0.404-0.794,0.628c2.8-0.076,6.127-0.257,10.754-0.212c2.127,0.287-4.894,0.482-10.376,0.375   c6.755,0.332-8.571,0.499,0.989,0.753c20.437-0.222,34.879-0.45,49.25-1.369c-11.648,0.151-24.68,0.339-34.234,0.086l4.016-0.544   c10.798,0.479,17.464,0.121,28.085,0.172l-23.858-0.289c-11.176-0.453-3.7-0.557,5.11-0.655   C191.717,104.061,189.756,104.028,189.206,103.932z" fill="#202020"/><path d="M205.281,99.158l-0.4-0.016c-0.35,0.02-0.783,0.032-1.005,0.055L205.281,99.158z" fill="#202020"/><path d="M162.821,400.62l-1.595-1.304C162.501,400.46,162.92,400.788,162.821,400.62z" fill="#202020"/><path d="M219.513,101.793h-0.017C219.657,101.787,219.697,101.787,219.513,101.793z" fill="#202020"/><path d="M207.663,394.301c-0.041,0.062-0.08,0.123-0.159,0.226C207.622,394.385,207.61,394.374,207.663,394.301z" fill="#202020"/><path d="M208.932,376.443c-0.085,0.05-0.122,0.053-0.297,0.192C207.887,377.427,208.279,377.071,208.932,376.443z" fill="#202020"/><path d="M207.654,394.238c0.012,0.012,0.047-0.001,0.009,0.063C207.678,394.261,207.728,394.186,207.654,394.238z" fill="#202020"/><path d="M190.137,383.873c0,0-0.094,0.669-0.184,1.667C190.005,385.737,190.063,385.28,190.137,383.873z" fill="#202020"/><path d="M217.567,359.763c0.234-0.205,0.373-0.326,0.675-0.59L217.567,359.763z" fill="#202020"/><path d="M374.612,226.315c-2.422-0.008-4.238,0.006-5.771,0.029C370.607,226.358,372.517,226.356,374.612,226.315z" fill="#202020"/><path d="M207.504,394.526c-0.32,0.401-0.792,0.957-1.587,1.856C206.795,395.393,207.247,394.857,207.504,394.526z" fill="#202020"/><path d="M187.389,315.384c0.021,0.521,0.04,1.011,0.06,1.505c0.009-0.3,0.019-0.6,0.027-0.895L187.389,315.384z" fill="#202020"/><path d="M187.79,289.842c0.062,0.872,0.126,1.272,0.182,1.761c-0.057-2.278-0.083-5.034-0.102-7.917   c-0.011-2.9-0.088-5.871,0.195-8.594c0.5-5.478,1.975-9.891,2.031-10.906c-0.257,0.723-0.779,2.205-1.277,4.021   c-0.496,1.816-0.973,3.966-1.265,5.967c-0.606,4-0.599,7.354-0.807,5.98c0.145,6.354-0.261,15.748-0.166,19.17   c0.316-10.432,0.488-1.128,0.684,5.916c-0.169,6.405-0.466-1.205-0.573,4.311l0.064,14.82l0.076-12.909l0.557,3.922   c-0.019-0.478-0.032-0.806-0.053-1.316C187.077,292.225,188.151,312.212,187.79,289.842z" fill="#202020"/><path d="M187.971,291.602c0.035,1.367,0.078,2.566,0.137,3.5C188.099,293.042,188.043,292.242,187.971,291.602z" fill="#202020"/><path d="M237.467,234.256c1.122-0.026,2.338-0.053,3.866-0.088C240.605,234.184,238.917,234.223,237.467,234.256z" fill="#202020"/><path d="M116.93,331.889c-0.155-0.387-8.915-9.625-9.057-9.161c2.64,2.702,5.298,5.425,7.969,8.159L116.93,331.889z   " fill="#202020"/><path d="M445.801,170.243c-0.086,1.4-0.206,2.803-0.361,4.202c-0.013,0.303-0.024,0.596-0.033,0.822   C445.597,174.424,445.786,171.646,445.801,170.243z" fill="#202020"/><path d="M186.686,276.186c-0.097,2.356,0.004,3.408,0.062,3.968C186.724,278.632,186.702,277.228,186.686,276.186z" fill="#202020"/><path d="M446.854,169.491c0.206-1.808,0.344-4.497,0.48-4.886c-0.149-3.74-0.661-6.338-1.421-10.049   C446.77,158.743,447.261,163.727,446.854,169.491z" fill="#202020"/><path d="M445.847,154.255c0.023,0.104,0.046,0.208,0.066,0.301C445.891,154.452,445.87,154.359,445.847,154.255z" fill="#202020"/><path d="M122.155,337.372c0.794,0.753,1.613,1.529,2.456,2.328l-1.326-1.164c2.039,2.101,4.067,4.189,6.098,6.282   c0.761,0.732,1.585,1.526,2.598,2.501c-0.412-0.39-0.754-0.668-0.979-0.827c0.66,0.684,1.304,1.351,1.948,2.019   c5.243,4.616,17.738,16.654,21.461,20.01c2.408,2.273,5.064,4.824,7.563,7.259c2.747,2.682,4.211,4.12,5.646,5.579   c-0.64-0.634-1.332-1.319-1.994-1.976c-0.741-0.712-1.449-1.393-2.031-1.953c-1.393-1.32-2.226-2.035-1.648-1.284   c0.67,0.716,1.306,1.394,1.918,2.048c0.514,0.566,1.008,1.112,1.493,1.648c0.988,1.095,1.94,2.151,2.942,3.263   c2.06,2.256,4.521,4.848,7.73,7.941c-0.036-2.012-0.105-4.426-0.219-7.119c0.002,2.203,0.005,4.406,0.005,6.604l-1.148-1.142   c0.356,0.316,0.713,0.634,1.097,1.018c-0.298-6.306-0.597-11.863-0.895-16.747c0.099-1.907,0.177-2.182,0.246-1.473   c0.034,0.335,0.066,0.996,0.096,1.675c0.024,0.602,0.054,1.333,0.086,2.129c0.112,3.21,0.218,7.689,0.389,9.255   c-0.117-3.719-0.127-6.969-0.088-10.115c0.072-3.715,0.139-7.205,0.201-10.421c0.151-6.618,0.259-12.101-0.153-16.025   c0.488-1.104,1.303-2.96,1.254-14.07c-0.557,8.011-0.358-6.66-0.954-0.089c-0.279-3.838,0.176-12.393-0.189-13.031l0.202,1.038   c0.773-18.97-0.438-25.18-0.837-33.296c-0.019-2.839-0.036-5.486-0.052-7.981c-0.03-2.484,0.042-4.979,0.274-7.255   c0.456-4.596,1.396-8.669,2.652-12.479c1.267-3.81,2.861-7.365,4.879-10.896c2.021-3.529,4.487-7.031,7.674-10.598   c0.784-0.315,4.772-3.677,10.91-7.989c1.285-1.204,5.55-4.126,10.055-6.196c4.472-2.136,9.068-3.419,9.87-3.877   c-3.36,0.713-5.666,1.492-7.366,2.153c-1.701,0.667-2.801,1.23-3.735,1.731c-1.847,1.041-3.061,1.803-6.512,3.953   c-3.022,1.56-3.203,1.6-3.661,1.754c-0.423,0.211-1.198,0.469-4.887,3.383c1.462-1.204,3.854-3.167,6.955-5.179   c3.09-2.021,6.899-4.072,10.942-5.632c4.033-1.58,8.276-2.67,12.025-3.219c3.75-0.561,6.986-0.618,9.051-0.488   c0,0-0.729,0.032-1.458,0.063c-0.728,0.049-1.456,0.099-1.456,0.099c3.334-0.065,5.826,0.173,8.191,0.315   c2.355,0.166,4.521,0.346,6.952,0.49c4.862,0.287,10.786,0.425,21.415,0.001l10.144-0.348c-0.488,0.057-0.544,0.123-0.806,0.174   c16.604,0.059,12.071,0.704,30.402,0.195c-1.417,0.039-0.527,0.102-1.967,0.14c10.449,0.318,20.986-0.321,28.886-0.455   c4.821,0.473-1.145,0.465-4.127,0.808c18.381,0.183,38.218-0.628,49.633-1.205c0,0,0.73,0.013,1.826,0.033   c1.078,0.017,2.517-0.013,3.953-0.106c2.877-0.156,5.722-0.671,5.722-0.671c-3.334,0.775-7.13,1.281-9.839,1.47   c-2.734,0.201-4.361,0.385-3.284,0.532c3.266-0.037,4.551-0.137,6.179-0.3c1.619-0.192,3.591-0.287,8.057-1.164   c-1.447,0.632-5.184,1.636-9.526,2.159c4.794-0.078,7.434-0.648,8.899-0.98c1.467-0.367,1.782-0.574,1.927-0.721   c0.146-0.146,0.119-0.237,0.878-0.433c0.752-0.225,2.3-0.494,5.521-1.417c2.815-1.045,4.91-2.186,6.338-3.11   c1.431-0.924,2.201-1.635,2.387-1.955c0,0,2.371-1.26,4.603-2.773c2.248-1.488,4.33-3.221,4.33-3.221   c0.282-0.581,2.939-3.063,5.729-6.659c2.841-3.552,5.67-8.278,7.365-12.264c0.115-0.527-0.666,1.033-1.792,3.007   c-1.107,1.987-2.623,4.348-3.491,5.731c0.04-0.364,1.329-2.445,2.731-5.192c1.411-2.743,2.841-6.191,3.735-8.966   c0.4-0.426,1.361-2.932,2.097-6.459c0.75-3.52,1.166-8.06,0.979-12.302c-0.143-4.247-0.852-8.155-1.358-10.565   c-0.52-2.407-0.684-3.385,0.069-1.774c-1.797-6.419-5.041-13.146-9.7-19.054c-4.624-5.929-10.649-10.971-17.174-14.471   c-6.52-3.532-13.495-5.478-19.798-6.121c-3.166-0.358-6.106-0.309-8.928-0.255c-2.793,0.051-5.332,0.098-7.558,0.139   c-5.871-0.27-17.837-0.283-10.665-0.741c-21.715-0.004-32.913,0.997-54.466,0.73c-1.783-0.122,9.743-0.009,8.977-0.334   c-14.087,0.391-25.63-0.413-47.489-0.152c3.678-0.018,4.75-0.219,5.261-0.32c0.384,0.162-8.954,0.335-14.609,0.492   c-3.177-0.084,4.233-0.117,2.45-0.241c-42.223-0.474-74.392,0.853-116.387,0.809c5.997,0.006,10.128-0.152,12.776-0.345   c2.648-0.193,3.813-0.42,3.877-0.553l-11.749-0.012c-4.527,0.323-13.349,0.322-20.726,0.563c-0.905-0.121-4.494-0.252-0.833-0.404   c-11.604-0.327-20.667-0.032-30.384,0.302c-4.858,0.167-9.88,0.345-15.465,0.459c-2.792,0.057-5.726,0.099-8.85,0.115   c-0.809,0-1.63,0-2.464,0c-1.09-0.05-2.196-0.374-3.164-0.958c-0.967-0.583-1.801-1.419-2.378-2.433   c-0.583-0.989-0.897-2.245-0.886-3.351c0,0,0.012,0.158,0.034,0.453c0.038,0.38,0.112,0.845,0.312,1.456   c0.381,1.184,1.381,2.845,3.297,3.812c0.926,0.477,2.131,0.75,3.244,0.686c0.925-0.035,1.9-0.072,2.909-0.11   c2.018-0.076,4.171-0.158,6.323-0.239c8.61-0.326,17.22-0.651,17.22-0.651l-8.521-0.454l15.143-0.593   c-9.043-0.357-16.909,0.469-17.998-0.021c1.911-0.138,6.516-0.094,6.66-0.358c-8.682-0.191-9.365,0.174-15.893,0.269   c17.198-0.996,50.917-0.98,69.064-1.225c2.855-0.078-2.444,0.24-2.949,0.342c7.404-0.033,11.849,0.277,21.169,0.104   c5.788-0.421-4.416-0.31-9.01-0.354c0.633-0.366,2.944-0.344,8.06-0.399c1.111,0.488,28.085,0.173,34.679,0.769   c27.335-0.154-4.372-1.264,22.314-1.052l7.971,0.559c15.493-0.432,35.529-0.814,53.06-0.695l-3.693,0.018   c-2.461,0.239,1.605,0.386,3.405,0.508c13.248,0.239,25.152-0.439,33.179,0.12c15.109-0.594,40.301-1.033,57.577-1.34   c4.66,0.736-22.537,0.625-29.725,1.085l15.726-0.003c-9.721,0.01-13.56,0.29-19.387,0.709c13.782,0.137,18.314-0.508,31.38-0.694   c-1.017,0.2,0.728,0.323,6.755,0.329l1.711-0.489c0.111,0.04,0.777,0.077,2.639,0.108c0,0,0.368-0.003,1.013-0.009   c0.661-0.006,1.607,0.002,2.742,0.045c2.269,0.091,5.295,0.37,8.279,0.937c2.986,0.551,5.918,1.378,8.072,2.126   c2.157,0.743,3.555,1.35,3.555,1.35c-2.332-1.115-3.57-1.695-4.956-2.295c-1.392-0.581-2.943-1.19-6.053-1.862   c2.15,0.814-3.085-0.579-9.416-0.837c2.775,0.01,1.247-0.19-0.979-0.325c-1.082-0.039-2.328-0.083-3.297-0.118   c-0.942-0.038-1.614-0.084-1.582-0.15c1.529,0.007,2.996-0.011,4.71,0.019c1.67,0.042,3.363,0.152,5.057,0.333   c3.387,0.354,6.762,1.036,9.93,1.933c6.353,1.789,11.777,4.578,15.345,6.793c0,0,0.509,0.468,1.018,0.937   c0.495,0.478,0.991,0.957,0.991,0.957c4.937,3.531,9.45,7.916,12.952,12.479c3.517,4.556,6.026,9.249,7.525,13.083   c0,0-0.301-0.579-0.62-1.146c-0.309-0.572-0.645-1.129-0.645-1.129c3.021,6.595,4.838,13.678,5.305,20.655   c0.488,6.97-0.358,13.829-2.325,19.938c-1.494,6.271-4.45,13.094-8.479,18.91c-3.979,5.857-8.923,10.66-13.187,13.963   c-1.095,0.944-3.689,2.767-7.405,4.615c-3.706,1.854-8.557,3.674-13.863,4.769c-2.648,0.557-5.402,0.938-8.149,1.135   c-1.373,0.094-2.744,0.156-4.1,0.159c-1.283-0.001-2.552-0.001-3.795-0.002c-4.909,0.001-9.425,0.073-12.889,0.277   c-0.933-0.063,9.516-0.438,14.243-0.657c-9.216-0.09-16.543,0.633-19.431,0.021c20.681,0.206-1.111-0.488,8.204-0.662   c-9.682,0.011-19.892,0.122-24.642,0.34c15.671-0.005-5.565,0.846,10.299,0.579c-12.293,0.515-29.068,0.72-43.717,0.521   c0.145-0.264-1.661-0.387-7.121-0.496l-4.405,0.383c-6.854-0.069,13.254-0.453-0.545-0.589   c-14.198,0.655-42.756-0.372-48.972,0.839c-10.821-0.478,20.592-0.484,4.283-1.07c9.487-0.438,22.575,0.063,25.702-0.541   c-9.299,0.172-3.394-0.511-9.394-0.517l-10.371,0.373l2.295,0.023c-4.352,0.143-9.338,0.232-14.717,0.289   c-2.69,0.02-5.478,0.041-8.334,0.062c-1.422,0.006-2.862,0.013-4.314,0.02c-1.38,0.004-2.771,0.081-4.166,0.189   c-5.58,0.457-11.223,1.815-16.437,4.001c-5.221,2.172-9.99,5.175-13.988,8.577c-6.581,6.01-10.713,12.459-13.709,19.651   c-1.462,3.621-2.628,7.467-3.367,11.722c-0.371,2.126-0.646,4.352-0.772,6.698c-0.075,1.179-0.091,2.362-0.097,3.624   c0,1.34-0.001,2.713-0.001,4.125c-0.357-6.666-0.344,18.753-0.999,4.538c-0.158,5.225-0.143,10.415-0.056,14.326   c0.087,3.91,0.246,6.541,0.378,6.644c0.091-9.193,0.085-3.233,0.215-10.977c0.32,5.227,0.306,17.275,0.097,22.225   c0.023-2.294-0.038-1.422-0.139-1.927c-0.215,10.977,0.318,5.26,0.452,13.192c-0.448,2.517-0.12,17.515-0.352,24.758l0.639,10.505   c-0.21-2.886-0.249-0.369-0.283,3.075c-0.022,2.096-0.048,4.473-0.069,6.453c-0.036,2.508-0.092,4.477-0.188,5.041   c0.186,7.318,0.461,14.387,0.611,23.336c-3.476-3.351-7.532-7.343-12.384-12.255c2.681,2.526-0.323-0.589-3.888-4.303   c-1.757-1.845-3.682-3.866-5.182-5.442c-0.182-0.195-0.358-0.385-0.526-0.565c-0.117-0.131-0.229-0.257-0.334-0.375   c-0.186-0.22-0.351-0.415-0.489-0.578c-0.27-0.332-0.419-0.549-0.399-0.604c-13.6-14.178-23.823-22.181-36.546-35.767   c0.479,0.338,3.333,2.795-0.438-1.126c-3.112-2.944-8.379-8.283-11.653-11.491l0.111,0.094c-0.066-0.06-0.107-0.097-0.177-0.16   c-1.604-1.57-2.638-2.531-2.75-2.497c-5.841-5.252-9.002-7.81-20.168-18.476c0.456,1.146,9.805,10.228,13.907,14.107l3.789,3.108   c2.775,3.816,9.934,9.753,12.268,12.438c-3.579-2.969-10.045-9.205-17.078-16.066c-3.515-3.432-7.181-7.011-10.683-10.431   c-0.878-0.853-1.747-1.694-2.6-2.521l-0.08-0.078l-0.04-0.038c-0.988,0.817,1.334-1.124,1.092-0.929l-0.008-0.012l-0.016-0.023   c-0.038-0.057-0.098-0.136-0.118-0.173c0.033,0.02,0.067,0.036,0.104,0.05c0.023,0.006,0.014-0.008,0.024-0.013l0.021-0.03   c-0.001,0-0.015,0.041-0.016,0.056c0.008,0.045-0.018-0.079-0.015-0.055l0.042,0.056l0.049,0.053l0.001,0.002   c0.176-0.185,0.043-0.047,0.08-0.086l-0.021,0.014l-0.041,0.029l-0.082,0.058c-0.084,0.065-0.045,0.019-0.031-0.013   c0.043-0.086,0.016-0.065,0.005-0.08l-0.018-0.013c-0.008-0.005-0.009-0.005,0-0.001c-0.008-0.003-0.01-0.005,0.007,0.006   c0.001,0.014,0.037-0.003,0.023,0.048l-0.028,0.061c-0.011,0.02-0.036,0.05,0.02,0.007l0.107-0.076l0.054-0.038l0.007-0.005   c-0.039,0.041,0.095-0.097-0.084,0.09l-0.002-0.002l-0.004-0.005c-0.107-0.112-0.091-0.124-0.083-0.093   c0.014,0.035,0.009,0.072,0.012,0.038c-0.003-0.027,0.046-0.096-0.019-0.004c-0.022-0.006-0.055-0.021-0.08-0.033l-0.039-0.021   l0.046,0.067l0.101,0.145c-3.121,2.759-0.861,0.77-1.556,1.387l0.008,0.009l0.015,0.016l0.03,0.031l0.06,0.063l0.483,0.509   c0.325,0.342,0.655,0.688,0.99,1.04c0.672,0.7,1.364,1.421,2.072,2.159c1.425,1.468,2.917,3.004,4.456,4.59   c6.178,6.321,13.198,13.35,19.772,19.866l-5.559-5.973l6.856,6.844l-6.263-6.997c6.424,6.553,12.127,12.068,17.971,17.953   c-6.873-6.859-9.072-10.01-5.263-6.05c7.313,7.99,8.195,7.753,14.022,13.623c-3.225-3.288-7.453-7.528-4.526-4.996   c11.118,11.947,14.502,14.792,24.547,25.723c-0.096-0.671,1.836,1.232,9.056,8.449c6.226,6.224,13.144,13.165,14.199,13.749   l-8.17-8.268c3.765,3.609,7.53,7.218,11.406,11.094l-0.271-8.281c0.166-5.123,0.291-6.557,0.393-6.137   c0.102,0.408,0.18,2.641,0.252,4.536c0.072,1.89,0.139,3.44,0.216,2.36c0.077-1.09,0.166-4.786,0.283-13.643   c-0.004-4.133-0.007-7.735-0.01-10.928c-0.029-1.891-0.055-3.538-0.077-5.013c-0.07-2.847-0.171-5.023-0.276-7.074   c-0.211-4.101-0.441-7.696-0.473-15.131c0.241,2.449,0.465,6.622,0.627,11.683c0.081,2.53,0.146,5.282,0.19,8.152   c0.017,1.435,0.033,2.898,0.05,4.379c0.005,1.948,0.009,3.918,0.014,5.893c0,0,0.015-0.795,0.036-1.987   c0.022-0.835,0.051-1.948,0.08-3.062c0.058-1.816,0.116-3.633,0.116-3.633c0.061,0.838,0.106,2.283,0.138,4.116   c0.012,1.342,0.026,2.826,0.041,4.413c0.007,1.958,0.016,4.043,0.024,6.204c0,8.638,0,18.499,0,26.425   c-1.65-1.656-3.177-3.189-4.531-4.548c2.031,1.925,3.458,3.276,4.356,4.127c-0.092-3.162-0.135-2.731-0.159-0.384   c-3.99-4.072-15.461-15.482-20.085-20.484c-0.806-0.477,1.533,2.003,2.477,3.069c0.919,1.042,0.482,0.712-6.308-5.814   c10.303,10.293,13.324,13.275,24.454,24.529c0.008-0.892,0.039-4.271,0.076-8.293c-0.006,3.011-0.012,5.817-0.017,8.435   c-7.104-7.096-12.304-12.15-16.722-16.362c-2.242-2.115-4.243-4.004-6.125-5.778c-0.967-0.902-1.903-1.776-2.824-2.635   l-0.624-0.576l-0.372-0.324l-0.74-0.646c-3.939-3.438-7.844-6.912-15.456-14.783c7.753,7.455-2.176-3.128-2.931-4.202   c-3.618-3.539-10.955-10.72-14.022-13.622l2.226,3.179c-9.817-9.406-12.147-13.754-23.73-24.355   c-1.727-1.156,9.66,9.854,7.609,7.913c-7.738-7.438-12.782-12.717-17.532-17.865c-1.183-1.291-2.353-2.568-3.544-3.868   c-0.594-0.651-1.193-1.309-1.801-1.976c-0.304-0.333-0.61-0.669-0.92-1.008l-0.232-0.255l-0.059-0.064l-0.029-0.031l-0.015-0.017   l-0.007-0.008c-0.356,0.312,3.075-2.738,1.62-1.451l-0.102-0.146c-0.012-0.02-0.044-0.06-0.04-0.062l0.04,0.022   c0.023,0.012,0.063,0.029,0.077,0.031l0.021-0.027c0.032-0.061-0.012,0.039-0.003,0.044c0.01,0.019-0.025-0.095-0.011-0.058   c0.151,0.167-0.09-0.043-0.009,0.018c0.06,0.021,0.078,0.003,0.003,0.022c-0.01-0.001-0.044,0.027,0.023-0.021l0.042-0.036   l0.031-0.03l0.001-0.001c3.125-3.129,0.867-0.866,1.565-1.564l0.001,0.001l0.003,0.002l0.012,0.009l0.023,0.018l0.047,0.035   l0.098,0.074c0.267,0.201,0.576,0.445,0.939,0.742c0.726,0.594,1.666,1.402,2.907,2.518c-1.767-1.195,1.575,2.439-3.937-2.654   c4.385,4.626,9.933,9.754,14.019,13.618c-9.212-9.548,4.249,3.427,6.148,4.983c4.811,4.907-1.766-1.195-4.838-4.102   c3.824,3.977,8.038,9.033,10.681,10.82c-0.074,0.228-2.998-2.301-6.817-5.779c-3.819-3.479-8.533-7.909-12.188-11.485l4.826,4.923   c-3.512-3.205-4.097-3.877-8.89-8.763c4.504,4.971,3.779,4.761,2.46,3.871c-0.577-0.664,0.417,0.274-0.133-0.361   c-3.82-3.974-6.891-6.881-6.148-5.817c-3.908-3.099,5.152,5.658,7.59,8.499c2.022,1.969,4.045,3.937,6.028,5.866l21.543,18.945   c8.801,8.498,12.378,12.697,18.679,19.391l2.13,1.436c7.49,7.563,14.482,14.773,9.219,10.39c-0.155-0.387-1.177-1.353-2.794-3.003   c-0.263-0.17-0.674-0.513-1.176-0.961c-0.182-0.131-0.283-0.204-0.434-0.313c8.178,7.942,13.283,12.9,13.753,13.357   c-14.189-13.182-1.314-0.054-4.22-1.728l14.023,13.621c-8.183-8.573,0.147-0.454,3.205,2.436c0.138,0.339,1.133,1.419,2.597,2.902   c0.738,0.734,1.585,1.578,2.496,2.485l0.213,0.206l0.169,0.152c0.117,0.098,0.245,0.188,0.386,0.254l0.104,0.055l0.052,0.026   l0.016,0.009l0.037,0.021l0.009,0.005c-0.828,1.355,1.866-3.026-1.853,3.04l0.083-0.193c0.227-0.535,0.373-0.978,0.663-1.744   c0.717-2.016,0.438-1.235,0.516-1.386l0.077,0.023l0.109,0.033l0.038,0.012l0.019,0.006c-1.964,6.192-0.517,1.638-0.943,2.984   l0.046-0.137l0.091-0.274l0.763-2.488c0.021-0.07,0.033-0.111,0.026-0.092h0h-0.001l0.004,0.001l0.01,0.002l0.031,0.008   l0.085,0.021l0.201,0.049l0.203,0.046l0.084,0.019l0.023,0.004l0.003,0.001l-0.19,0.868l-0.344,1.675   c-0.121-0.874-0.242-1.748-0.364-2.635l0.53-0.032l0.211-0.022c0.003,0,0.012-0.001,0.01-0.001c0,0.009-0.003-0.021,0.001,0.02   l0.059,0.475c0.091,0.657,0.145,1.159,0.25,1.738c0.034,0.242,0.074,0.482,0.123,0.723l0.038,0.18   c-0.008,0.021,0.032,0.018-0.016,0.057l-0.007-0.046l-0.014-0.092l-0.057-0.366l-0.113-0.734c-0.074-0.299-0.156-0.596-0.247-0.891   l-0.294-0.891l-0.032-0.116h0.001l0.002-0.001l0.004-0.001l0.028-0.011l0.111-0.039l0.16-0.057l0.049-0.018h0.001   c-0.144,0.055,0.322-0.124-0.321,0.123l0.001-0.001l0.003-0.001l0.005-0.003l0.012-0.005l0.023-0.011l0.048-0.022   c0.088-0.045,0.213-0.105,0.31-0.171l0.023-0.02l0.012-0.009h0l0,0l1.302,2.103l0.001,0.001l0.012,0.012l0.023,0.024l0.047,0.048   l0.095,0.096c0.254,0.254,0.515,0.503,0.78,0.746c-0.907-0.888-1.813-1.776-2.701-2.646l0.27-0.257l0.34-0.345   c0.236-0.241,0.47-0.48,0.701-0.718c0.463-0.472,0.916-0.933,1.351-1.376c0.878-0.879,1.688-1.689,2.386-2.387l-0.286,0.428   c4.613-4.373,12.449-12.277,17.953-17.97c-0.373,0.141,6.239-7.604,9.346-11.394c-9.74,9.48-4.177,3.641-5.164,4.197   c1.014-0.975,2.806-2.759,2.97-3.012c1.276-1.473-1.999,1.737-2.386,1.895c-10.052,10.376-20.515,20.932-24.191,25.575   c3.357-2.92,5.133-5.552,8.791-8.917c-1.692,1.925-3.623,3.988-5.795,6.234c-1.094,1.117-2.239,2.287-3.441,3.514   c-0.605,0.609-1.225,1.232-1.858,1.87c-0.318,0.318-0.639,0.641-0.964,0.966l-0.49,0.49l-0.361,0.335   c1.124,1.118,2.327,2.317,3.53,3.516c-0.257-0.235-0.515-0.481-0.771-0.737l-0.096-0.096l-0.047-0.048l-0.024-0.024l-0.012-0.012   l-0.006-0.007l-0.003-0.003l-0.001-0.001l-1.937-3.129v0.001l0.001,0.003c-0.063,0.04-0.151,0.079-0.206,0.104   c-0.008,0.003,0.024-0.01-0.022,0.01l-0.023,0.01l-0.012,0.005c0.002,0.009-0.012-0.017,0.002,0.021l0.071,0.183l0.142,0.364   l0.018,0.045c0.067-0.341-0.136,0.796,0.151-0.759h0l-0.003,0.001l-0.006,0.003l-0.025,0.008l-0.158,0.053l-0.096,0.031   c-0.007,0.002-0.024,0.008-0.017,0.005l0.251,0.86l0.15,0.535l0.152,0.436c0.182,0.559,0.39,1.244,0.429,1.683l0.113,0.733   c0.013,0.01-0.01,0.107,0.033,0.045l-0.019-0.09l-0.037-0.18l-0.065-0.36c-0.07-0.464-0.181-1.094-0.242-1.649   c-0.094-0.646-0.153-1.243-0.232-1.933c-0.027-0.244-0.02-0.176-0.021-0.184h-0.001l-0.009,0.001l-0.034,0.003l-0.104,0.007   l-0.265,0.013l-0.128,0.004l-0.049,0.001h-0.015h-0.002h0l0,0.231l-0.001,0.558c0.115,0.982,0.24,2.045,0.364,3.106   c0.141-0.729,0.293-1.457,0.456-2.183l0.271-1.253l0.075-0.34l0,0l-0.028-0.007l-0.109-0.026l-0.252-0.065l-0.112-0.029   l-0.04-0.012l-0.009-0.003c-0.005,0.017,0.009-0.036-0.013,0.035l-0.284,0.975l-0.552,1.825c-0.146,0.499-0.304,0.994-0.473,1.485   c-0.307,0.962,2.602-8.169,1.37-4.306l-0.001-0.001l-0.003-0.001l-0.007-0.002l-0.013-0.004l-0.026-0.009l-0.042-0.014   l-0.117-0.038c-0.007-0.002-0.028-0.009-0.022-0.008l-0.943,2.676l-0.459,1.234l-0.218,0.536l-0.028,0.066l-0.014,0.033   c-0.551,0.922,4.738-7.88,2.498-4.156l-0.015-0.009l-0.03-0.017l-0.042-0.023l-0.094-0.053c-0.063-0.033-0.124-0.072-0.18-0.119   c-0.057-0.045-0.111-0.094-0.162-0.146l-0.324-0.325c-0.346-0.347-0.697-0.698-1.05-1.053l-2.49-3.071l-8.692-8.378   c3.716,3.409,1.874,0.961,10.888,9.858c-0.87-1.416-8.943-8.818-14.334-14.394l-3.189-2.42c1.294,0.866-10.4-10.912-1.769-2.866   l13.882,13.253l-3.508-4.034l11.543,11.396l-2.905-2.507c1.208,1.18,2.274,2.222,3.214,3.139c0.039,0.033,0.079,0.057,0.118,0.074   l0.01,0.006l0.047,0.026l0.023,0.013c-1.534,2.59,3.442-5.791-3.438,5.807l0.018-0.043l0.037-0.085l0.274-0.687l0.287-0.775   c0.236-0.626,0.424-1.17,0.667-1.869c0.266-0.771,0.53-1.541,0.794-2.309l0.194-0.577l0.002,0.001l0.004,0.001l0.018,0.006   l0.062,0.02l0.114,0.037l0.005,0.001l0.002,0.001c0.424-1.324-3.704,11.589-1.946,6.093l0.078-0.229l0.15-0.458l0.292-0.951   c0.226-0.759,0.452-1.515,0.677-2.27c0.213-0.741,0.427-1.481,0.639-2.219l0.01,0.002l0.042,0.012   c0.088,0.022,0.175,0.045,0.26,0.067l0.113,0.028l0.018,0.004l0.004,0.001l0.002,0.001h0.001c-0.002,0.009,0.005-0.02-0.004,0.021   l-0.042,0.185c-0.216,0.97-0.431,1.938-0.646,2.902c-0.199,0.897-0.368,1.677-0.53,2.522c-0.136-1.158-0.271-2.316-0.364-3.106   c-0.004-0.877-0.008-1.751-0.012-2.622c-0.001-0.076-0.001-0.074-0.001-0.068h-0.001h0.001h0.003h0.006h0.042l0.123-0.003   c0.077-0.004,0.152-0.007,0.225-0.01l0.03-0.002h0.005h0.001l0.054,0.547c0.136,1.479,0.311,2.935,0.473,4.104   c0.098,0.627,0.165,1.115,0.272,1.607c-0.009,0.017,0.034,0.03-0.018,0.049l-0.007-0.048l-0.015-0.095l-0.029-0.19l-0.058-0.378   c-0.046-0.262-0.056-0.475-0.153-0.806c-0.42-1.392-0.835-2.766-1.246-4.122l-0.101-0.331l-0.047-0.155l0,0h0.001h0.004l0.032-0.01   l0.118-0.036l0.092-0.03h0.001c0.923,5.116,0.251,1.405,0.455,2.542l-0.017-0.043l-0.034-0.086l-0.067-0.172l-0.134-0.343   l-0.268-0.684l-0.266-0.682l-0.133-0.34c-0.011-0.033,0.005-0.013,0.002-0.02c-0.025,0.012-0.042,0.021-0.028,0.016l0.052-0.011   l-0.044,0.024l-0.01,0.007l-0.005,0.004l0,0.001h0l0,0l2.918,4.713l0.012,0.013l0.025,0.025l0.196,0.197   c0.266,0.253,0.512,0.488,0.725,0.691c-1.788-1.806-3.575-3.612-4.808-4.857c0.108-0.094,0.174-0.133,0.309-0.253   c0.156-0.144,0.304-0.28,0.443-0.409c0.283-0.254,0.534-0.479,0.76-0.683c0.458-0.402,0.824-0.707,1.152-0.971   c0.655-0.528,1.154-0.893,1.91-1.545c1.512-1.304,4.051-3.76,10.922-10.978c5.338-6.271,11.533-12.567,23.022-23.83   c-8.125,8.334-0.514,1.171-3.339,4.536c8.591-8.202,11.037-11.418,15.209-15.953c2.386-1.894,4.109-3.215-3.426,4.249   c-0.42,1.452,9.775-9.954,10.993-10.11c12.413-12.429,16.959-17.833,22.116-23.679c2.578-2.922,5.31-5.955,9.253-10.031   c0.992-1.013,2.054-2.097,3.201-3.267c0.578-0.581,1.179-1.183,1.802-1.808l0.117-0.117c-0.398-0.449,3.526,3.852,1.873,2.025   l0.018-0.012l0.035-0.024l0.069-0.049c0.15-0.119,0.025,0.019,0.031,0.052c0.006,0.031,0.038,0.035,0.037,0.04   c0.017,0.01-0.005-0.003-0.027-0.009c-0.022,0.002-0.046-0.025-0.044,0.011c0-0.041,0.029-0.008,0.057-0.029   c0.028-0.009,0.045-0.022,0.014-0.001c0,0.034-0.088-0.008-0.053,0.129l-0.112-0.163c0.03,0.019,0.063,0.034,0.096,0.048   c0.043,0.016,0.031-0.021,0.042-0.02c0.03-0.068-0.02,0.08-0.005,0.045c0.001-0.01-0.011-0.053-0.017-0.063   c-0.002-0.005-0.001,0,0.016,0.022c0.575,0.665,1.156,1.336,1.742,2.014c0,0,0.014-0.021,0.038-0.056   c0.012-0.019,0.026-0.04,0.043-0.064l0.013-0.02l0.007-0.01l0.003-0.005c-0.585-0.587-1.175-1.177-1.768-1.771l-0.007-0.007   c-0.016-0.018-0.037-0.041-0.059-0.065c-0.027-0.034-0.028-0.041-0.028-0.039c0.002,0.003,0.019,0.033,0.075,0.093l1.605,1.619   l-0.104,0.108l-0.21,0.215l-0.416,0.428c-0.555,0.568-1.102,1.129-1.642,1.683c-1.083,1.106-2.14,2.185-3.173,3.239   c-2.074,2.102-4.055,4.108-5.97,6.049c-3.852,3.859-7.438,7.452-10.982,11.004c-7.104,7.086-14.051,13.989-22.5,22.606   l-13.981,12.894c2.921-3.089,10.593-11.575,6.56-8.067c7.087-5.985,13.831-13.115,21.168-19.862   c0.576-0.861-2.395,1.902-3.732,3.063c4.255-4.245,6.635-6.131,12.152-11.84c-0.384,0.158-6.645,6.145-2.097,1.463l7.975-7.298   c5.027-5.188,6.082-6.649,7.399-8.294c0.659-0.822,1.383-1.689,2.702-3.093c0.66-0.701,1.469-1.536,2.492-2.565   c0.514-0.513,1.079-1.076,1.704-1.699c0.314-0.309,0.644-0.633,0.989-0.973l0.262-0.257l0.066-0.065l0.034-0.033l0.008-0.008   l-0.293-0.298l-0.003-0.003l-0.026-0.027c-0.029-0.031-0.049-0.058-0.058-0.071l0.042,0.054l0.043,0.046l0.003,0.003v0.001   c-0.085-0.086,0.743,0.746,0.392,0.395l-0.002,0.003l-0.007,0.008l-0.027,0.035l-0.056,0.071l-0.113,0.144   c-0.309,0.387-0.646,0.808-1.007,1.259c-0.729,0.898-1.567,1.908-2.489,2.985c-1.842,2.155-4.015,4.584-6.302,6.943   c5.549-5.418-7.127,7.493-1.942,2.67c3.726-4.174,6.631-7.126,9.882-10.382c0.813-0.813,1.646-1.647,2.521-2.523l0.33-0.33   c-0.407-0.441-0.816-0.885-1.229-1.331c-0.03-0.036-0.041-0.055-0.044-0.059c-0.002-0.009,0.017,0.042,0.017,0.06   c0.001,0.021-0.002-0.007,0.01-0.041c0.004-0.016,0.012-0.028,0.005-0.016l-0.024,0.034c0.012,0.019-0.057-0.01-0.098-0.033   c-0.042-0.034-0.014,0.007,0.021,0.055l0.088,0.125l0.011,0.016c0.016,0.026-0.115-0.201-0.06-0.105l0.001-0.001l0.005-0.005   l0.01-0.01l0.021-0.019l0.029-0.025l0.029-0.021c0.01-0.005-0.017,0.009-0.036,0.014c-0.026-0.01-0.045,0.049-0.051-0.029   c0,0.078,0.014,0.021,0.039,0.045c-0.044,0.009-0.054-0.034-0.014-0.009c0.018-0.003,0.053-0.015,0.063-0.021   c0.005-0.002-0.002,0-0.035,0.026c-0.007,0.029-0.071,0.006-0.044,0.1l-0.092-0.131c-0.025-0.038,0.034,0.014,0.049,0.015   c0.071,0.035,0.062,0.016,0.071,0.005c-0.005-0.003,0.005,0.017-0.027,0.014c-0.02-0.009-0.04-0.018-0.063-0.028   c-0.022-0.012-0.063-0.044-0.006,0.028c0.033,0.048,0.069,0.1,0.107,0.154l0.004,0.005l0.002,0.003   c-0.124-0.215-0.034-0.06-0.062-0.108l0.001-0.001l0.003-0.003l0.007-0.007l0.015-0.015c0.087-0.078,0.091-0.058,0.022-0.039   c-0.08,0.013-0.016-0.001,0.036,0.025c0.006,0.002,0.002,0.002-0.021-0.015c-0.017-0.002-0.038-0.013,0.02-0.115   c0.028-0.035-0.006-0.011-0.046,0.019l-0.104,0.071l-0.052,0.036c-2.535-2.896-0.706-0.8-1.273-1.444l-0.006,0.005l-0.011,0.012   l-0.022,0.021l-0.089,0.087c-0.475,0.463-0.957,0.934-1.439,1.404c-3.86,3.766-7.72,7.531-7.72,7.531   c4.035-3.512-12.308,12.885-10.499,11.854c8.207-8.045,11.056-10.933,14.198-14.096c1.577-1.576,3.225-3.223,5.636-5.632   c0.151-0.15,0.306-0.303,0.464-0.459l0.059-0.059l0.03-0.029l0.015-0.015l0.008-0.008c-0.139-0.183,1.231,1.568,0.655,0.824   l0.142-0.099l0.067-0.047l-0.021,0.039c-0.013,0.025-0.026,0.057-0.034,0.08c0.045,0.036,0.056,0.037,0.039,0.03   c-0.016-0.007-0.05-0.015-0.063-0.016h-0.004h-0.002l0,0l0,0c0.001,0.054-0.001-0.119,0.002,0.119v-0.013l-0.005-0.209   c-0.002-0.016,0,0.056,0.005,0.08c0.01,0.044,0.021,0.01,0.038,0.016c0.03-0.006,0.071-0.032,0.032-0.007l-0.044,0.036   l-0.033,0.031l-0.003,0.003c-0.057-0.096,0.075,0.135,0.058,0.104l-0.01-0.013l-0.036-0.053l-0.073-0.104   c0.116,0.027,0.117-0.02,0.123-0.026c0.008-0.02-0.018,0.043-0.016,0.059c0,0.025,0.001-0.019-0.013-0.05   c0.018,0.039,0.01,0.085,0.016,0.033c0.003-0.02,0.016-0.049,0.014-0.044l-0.022,0.033c0.012,0.022-0.046,0.005-0.111-0.033   c-0.025-0.021-0.014-0.002,0.012,0.031l0.055,0.078l0.056,0.079l0.007,0.01l0.003,0.005c-0.124-0.216-0.034-0.061-0.062-0.108   l0.003-0.003l0.006-0.006c0.155-0.132,0.063-0.045,0.017-0.051c-0.004-0.003-0.01,0.01-0.013-0.007   c-0.005-0.03-0.008-0.062-0.007-0.093c0-0.046,0.002,0.094,0.003,0.132c-0.003-0.062,0.007-0.017,0.014-0.029   c0.018,0.002,0.049,0.011,0.06,0.017c0.002,0,0.009,0.005-0.005-0.004l-0.021-0.015c-0.014-0.005-0.027-0.007,0.011-0.083   c0.087-0.109-0.093,0.04-0.172,0.089l-0.01,0.007l-0.004,0.003c0.032,0.075-0.306-0.646-0.164-0.339l-0.015,0.017l-0.028,0.033   l-0.059,0.065l-0.115,0.131c-0.153,0.175-0.305,0.348-0.455,0.519c-0.597,0.688-1.169,1.35-1.708,1.972   c-1.071,1.251-1.994,2.36-2.695,3.243c-0.176,0.146-0.456,0.4-1.032,0.964c-2.443,3.214,0.544,0.434,1.164,1.162   c1.992-2.233,3.865-4.236,5.704-6.145l0.623-0.65l0.081-0.088l-0.009,0.002c-0.01,0.009-0.006,0.005,0.013-0.023   c0.028-0.037,0.053-0.077,0.075-0.117c0.091-0.159,0.151-0.332,0.18-0.516c0.057-0.373-0.031-0.756-0.236-1.048   c-0.213-0.304-0.557-0.54-0.933-0.595c-0.391-0.066-0.808,0.041-1.117,0.305c-0.945,0.961-1.927,1.959-2.957,3.008   c-1.101,1.148-2.254,2.352-3.474,3.623c-0.752,1.122,0.812-0.206,3.17-2.445c0.585-0.564,1.225-1.181,1.894-1.826   c0.587-0.577,1.2-1.181,1.819-1.788c0.188-0.173,0.508-0.22,0.746-0.144c0,0-0.107-0.034-0.275-0.011   c-0.082,0.012-0.175,0.043-0.249,0.094c-0.037,0.024-0.07,0.053-0.101,0.085l-0.044,0.053c-0.006,0.012-0.016,0.017-0.021,0.029   l-0.012,0.016l-0.085,0.09c-2.133,2.256-4.267,4.512-4.267,4.512l1.559-1.898l-22.406,22.16c4.203-4.242,5.422-5.89,7.465-8.255   c-2.89,2.86-5.835,5.611-8.97,8.533c0.988-0.284,0.836,0.364-1.975,3.163c-14.42,14.253-22.706,21.907-28.399,26.796   c-0.542,0.558-1.153,1.188-1.645,1.694c1.382-1.021-1,1.686-4.238,5.25c-1.623,1.779-3.448,3.781-5.134,5.63   c-1.783,1.99-3.417,3.813-4.54,5.067c-0.012-0.36-2.859,2.374-6.451,5.9c-3.591,3.525-7.999,7.913-10.957,10.68   c-1.858,2.287-1.985,2.923-0.499,1.927c1.475-0.984,4.595-3.635,8.903-7.593c4.161-4.356,6.722-7.065,8.408-8.88   c0.828-0.905,1.449-1.585,1.937-2.118c0.138-0.152,0.195-0.225,0.251-0.294c0.058-0.074,0.112-0.143,0.164-0.207   c0.099-0.132,0.184-0.246,0.261-0.35c0.599-0.838,0.539-1.058,2.551-3.625l15.18-15.922l-3.134,3.818   c7.912-7.611,14.916-15.518,14.791-14.504c-3.804,4.397-10.756,10.989-14.528,15.356l5.296-4.972   c-8.621,9.495-5.063,4.223-15.725,15.494c2.206-1.828,1.964-1.573,0.616-0.242c-0.671,0.669-1.615,1.61-2.686,2.678   c-0.525,0.544-1.082,1.119-1.651,1.708c-0.714,0.76-1.444,1.537-2.168,2.308c0.608-0.573,1.453-1.368,2.457-2.313   c0.789-0.771,1.703-1.663,2.682-2.619c1.942-1.929,4.143-4.114,6.121-6.08c3.965-3.924,7.093-6.916,5.767-4.947   c-2.711,2.991-7.696,7.601-12.867,12.484c-0.646,0.611-1.294,1.227-1.944,1.842c-0.927,0.899-1.854,1.799-2.777,2.693   c-2.195,2.166-4.367,4.312-6.472,6.389c-4.189,4.184-8.084,8.189-11.579,12.004l0.72-0.865c-1.877,1.868-3.637,3.619-5.193,5.169   c0.001-11.066-0.111-18.631-0.261-24.803c-0.09-3.119-0.169-5.834-0.242-8.362c-0.021-0.6-0.042-1.188-0.063-1.768   c-0.021-0.344-0.041-0.683-0.062-1.019c-0.039-0.672-0.078-1.333-0.117-1.999c0.294-6.699-0.12-15.948-0.153-23.208l0.264,0.178   l-0.11-10.243c0.481,4.877-0.013,12.004,0.057,20.803l0.491-1.094c-0.292,5.071-0.215,9.299-0.014,13.241   c0.058,0.985,0.114,1.953,0.171,2.912l0.047,0.813l0.048,1.25l0.1,2.467c0.123,3.179,0.246,6.356,0.374,9.646   c-0.036-2.407-0.076-5.061-0.119-7.871c-0.018-2.426-0.037-4.987-0.057-7.605c-0.015-3.61-0.03-7.377-0.044-10.871   c-0.037-6.987-0.14-12.88-0.62-14.224l0.495-7.083l-0.179-3.389c0.372-5.276,0.955,0.111,1.066,10.344   c-0.124,1.777-0.186,2.666-0.288,2.127c0.219,4.75,0.6,9.11,0.487,20.604l-0.26-6.133c0.004,3.191,0.007,6.318,0.011,9.305   c0.029,4.574,0.057,8.934,0.083,12.96c0.08,8.457,0.21,15.275,0.397,19.393c0.882-0.964,1.615-1.764,2.237-2.444   c-0.698,0.689-1.396,1.379-2.073,2.047c0.062-13.697,0.123-27.271,0.183-40.635c0.008-9.766,0.017-19.379,0.024-28.777   c-1.109-5.722-1.731-12.51-2.762-15.426c-0.095-6.508-0.178-14.179-0.19-21.636c0.015-3.729,0.029-7.404,0.042-10.854   c0.026-1.725,0.051-3.393,0.075-4.983c0.019-0.797,0.037-1.574,0.054-2.329c0.025-0.865,0.064-1.703,0.126-2.513l0.159,1.196   c0.257-6.304,1.476-12.044,2.989-16.659c1.287-3.086,1.026-1.95,0.637-0.619c-0.359,1.347-0.768,2.924,0.042,0.771   c0,0,0.399-1.259,1.144-3.095c0.746-1.833,1.857-4.236,3.183-6.525c1.312-2.296,2.818-4.48,4.035-6.048   c1.212-1.574,2.098-2.562,2.098-2.562c-0.261,0.638-3.416,4.251-6.19,9.18c-1.396,2.453-2.706,5.209-3.706,7.894   c-1.014,2.679-1.732,5.273-2.177,7.327c0.274-1.564,1.129-4.662,0.779-3.691c-0.757,2.335-1.421,5.261-1.793,8.398   c-0.185,1.568-0.299,3.189-0.339,4.81c-0.025,0.797-0.017,1.647-0.009,2.396c0.012,0.714,0.024,1.422,0.036,2.121   c0.09,5.593,0.12,10.575-0.217,12.47c0.117,4.222-0.498-8.577-0.533,5.716c-0.254,9.571,0.352,12.688,0.554,13.688   c0.265,0.155,0.362-15.021,0.681-9.755c-0.033-7.449-0.374-10.415-0.119-19.942c0.032,7.383,0.568,17.409,0.158,21.343   c0.493,14.598,1.733,12.504,1.801,5.621c-0.389,1.639-0.479-26.63-0.985-7.488c-0.25-4.299-0.376-10.376-0.479-16.784   c-0.024-1.603-0.049-3.226-0.074-4.846c-0.012-0.813-0.024-1.626-0.036-2.435c-0.009-0.896,0.003-1.789,0.032-2.676   c0.126-3.548,0.618-6.979,1.305-10.047l-0.038,0.578c0,0,0.835-3.82,2.296-7.446c1.399-3.649,3.374-7.029,3.373-7.03   c-0.498,0.982-1.268,2.53-1.828,3.891c-0.562,1.36-0.94,2.515-0.846,2.637c0,0,0.46-1.259,1.289-3.094   c0.825-1.836,2.068-4.227,3.52-6.499c1.44-2.278,3.09-4.425,4.407-5.969c1.318-1.544,2.278-2.504,2.278-2.504   c-2.095,2.221-2.674,3.107-2.497,2.967c0.188-0.13,1.205-1.224,2.683-2.632c1.474-1.412,3.449-3.096,5.413-4.52   c1.961-1.427,3.896-2.6,5.117-3.235c1.714-1.597,9.414-5.335,1.894-2.093c-2.078,0.996-3.364,1.757-4.26,2.333   c-0.896,0.579-1.41,0.971-1.889,1.364c-0.94,0.807-1.846,1.492-4.974,4.239c0,0,2.084-2.096,4.419-3.94   c1.162-0.926,2.373-1.795,3.297-2.426c0.927-0.627,1.563-1.021,1.563-1.021s0.231-0.111,0.462-0.223   c0.233-0.106,0.466-0.213,0.466-0.213s1.519-0.969,3.116-1.822c1.588-0.869,3.25-1.615,3.25-1.615   c3.869-1.386,5.48-1.599,5.91-1.615c0.438,0.007-0.26,0.304-0.81,0.578c-0.551,0.271-0.963,0.487,0.001,0.266   c0.971-0.181,3.297-0.957,8.444-1.652c0,0-0.693-0.101-1.386-0.201c-0.7-0.083-1.4-0.166-1.4-0.166   c1.506-0.222,3.049-0.375,4.615-0.467c0.783-0.05,1.572-0.07,2.366-0.085l1.192-0.004l1.048,0.011   c2.803,0.037,5.665,0.074,8.549,0.112c5.769,0.09,11.628,0.182,17.293,0.27c11.331,0.172,21.884,0.29,29.375,0.126   c-4.133,0.404-5.955,1.055-0.272,1.44c-6.461-0.123-19.442-0.097-28.708-0.03c-1.783-0.125,11.576-0.841,21.642-0.688   c-4.877-1.164-25.318,0.703-26.502-0.477c-12.823-0.206-17.606,0.078-21.904,0.327c-0.581,0.036-1.153,0.07-1.733,0.106   c-0.6,0.051-1.208,0.102-1.84,0.155c-1.263,0.117-2.619,0.285-4.196,0.517c-3.141,0.502-7.226,1.191-12.958,3.326   c-0.059,0.303-1.628,1.025-3.25,1.898c-1.627,0.862-3.289,1.9-3.709,2.426c1.636-0.736,4.202-2.073,7.529-3.384   c3.318-1.32,7.416-2.579,11.893-3.284c2.237-0.348,4.561-0.579,6.902-0.63c2.156-0.022,4.323-0.045,6.454-0.067   c4.211-0.028,8.276-0.027,11.808,0.048c-1.383,0.038-4.166,0.117-4.71,0.217c10.098,0.154,14.27,0.037,21.325-0.158l-0.889-0.063   c12.326-0.515,7.627,0.394,14.882,0.625c2.811-0.078,12.898,0.074,11.276-0.313l13.138,0.5l-0.634-0.588   c7.41-0.034,9.032,0.354,15.748-0.004l0.312-0.526l-18.403-0.183c9.326-0.172,2.6-0.504,12.849-0.615   c-11.449,0.576,8.099,0.292,9.227,0.781l7.538-0.296l-1.928,0.14c5.916,0.271,7.043-0.196,13.948-0.127   c-8.144-0.293-13.477-0.664-23.853-0.29c7.555-0.296,22.536-0.624,26.213-0.642c7.933-0.221,13.471,0.181,20.893,0.24   c-14.243,0.211,4.988,1.597-23.553,1.218c0.527-0.101,2.838-0.078,3.732-0.016c-3.805-0.673-17.108,0.042-23.297,0.299   c1.594,0.388-4.877,0.484,6.094,0.698c-3.6-0.248,9.243-0.864,19.681-0.546l-1.839,0.829l15.198,0.098l-1.422,0.039   c2.858,0.267,6.912,0.241,11.56,0.188c2.303-0.025,4.753-0.053,7.275-0.081c2.417-0.052,4.897-0.227,7.371-0.49   c1.767-0.315,4.784-0.873,8.049-1.823c3.268-0.932,6.762-2.282,9.581-3.662c2.826-1.37,4.982-2.734,5.8-3.351   c0.807-0.641,0.328-0.447-2.318,0.806c3.97-1.917,7.374-4.371,10.501-7.228c3.122-2.871,5.982-6.148,8.796-10.011   c0,0-1.837,2.353-3.91,4.487c-2.05,2.157-4.313,4.077-4.313,4.078c2.486-2.474,3.996-4.305,5.099-5.675   c1.097-1.377,1.77-2.314,2.373-3.192c0.6-0.881,1.121-1.71,1.812-2.935c0.683-1.228,1.546-2.851,2.632-5.388   c0.724-0.87,1.967-3.02,1.19-0.89c2.103-4.161,3.93-9.032,5.049-14.21c1.136-5.171,1.564-10.634,1.278-15.821   c-0.271-5.187-1.257-10.068-2.579-14.182c-1.316-4.122-2.945-7.477-4.333-9.816c-1.484-2.909-2.813-5.126-4.063-7.086   c-1.259-1.955-2.445-3.654-3.842-5.406c-1.4-1.747-3.005-3.559-5.228-5.592c-2.228-2.02-5.072-4.289-9.089-6.606   c-1.709-0.943-1.154-0.381-1.473-0.397c-0.161-0.004-0.537-0.154-1.542-0.658c-1.008-0.497-2.638-1.369-5.422-2.586   c-0.364-0.194,2.396,0.796,3.655,1.286c0.633,0.233,0.906,0.299,0.255-0.072c-0.657-0.357-2.226-1.2-5.425-2.396   c-4.652-1.41-10.155-2.898-16.208-3.48c-1.51-0.148-3.05-0.241-4.608-0.268c-1.679-0.013-3.374-0.026-5.077-0.039   c-3.426-0.005-6.885,0.037-10.312,0.175c-7.238-0.23-19.798-0.143-17.182-0.648c11.466,0.115,27.691,0.01,30.163-0.232   c-0.802,0.153,1.271,0.224,2.403,0.293c0.55,0.034,0.897,0.075,0.618,0.105c-0.14,0.014-0.436,0.035-0.942,0.053   c-0.546,0.018-1.317,0.043-2.373,0.078c1.066,0.023,2.043,0.044,2.94,0.063c0.844,0.026,1.611,0.058,2.314,0.103   c1.406,0.082,2.551,0.191,3.521,0.288c1.938,0.2,3.177,0.363,4.364,0.523c1.185,0.172,2.322,0.343,4.023,0.745   c1.697,0.412,3.977,1.027,7.31,2.392c0.497,0.095-1.162-0.751-3.395-1.566c-2.226-0.831-5.033-1.561-6.575-1.767   c0.015-0.167,1.791,0.052,4.211,0.641c2.422,0.576,5.462,1.58,8.042,2.654c2.587,1.06,4.719,2.16,5.535,2.507   c0.805,0.367,0.363-0.121-2.473-1.785c-3.534-1.758-6.633-2.803-9.4-3.532c-2.773-0.722-5.229-1.118-7.618-1.396   c-2.392-0.276-4.722-0.427-7.294-0.531c-0.644-0.019-1.302-0.039-1.98-0.059c-0.7-0.013-1.421-0.025-2.167-0.039   c-1.546-0.03-3.197-0.087-4.997-0.178c1.442-0.105,3.089-0.161,4.861-0.198c0.906-0.018,1.775-0.037,2.655-0.026   c0.888,0.009,1.795,0.039,2.714,0.087c3.677,0.187,7.505,0.712,10.972,1.22c0,0-2.712-0.768-5.493-1.258   c-2.775-0.518-5.599-0.757-5.599-0.757s-2.059-0.015-4.105,0.116c-2.147,0.125-4.294,0.249-4.294,0.249l0.511-0.102   c-20.897-0.631-19.331,0.71-38.028,1.056c10.832,0.479-2.506,1.195,5.644,1.488c-12.504,0.088-21.687-0.004-21.77-0.693   c23.392-0.563,1.327-0.729,22.953-1.417c-3.55-0.247,5.148-1.009-7.738-1.085c-14.521,0.492,4.344,0.574-10.138,0.802   c-0.855-0.062-1.744-0.124-1.239-0.225c-6.66,0.358-7.771-0.129-15.831,0.267l1.911-0.138c-9.938-0.418-10.871,0.474-19.426,0.018   c3.422,0.512-5.744,0.42-11.049,0.739c8.672,0.193,13.365,0.928,30.475,0.887c2.066-0.405,0.816-0.629,7.844-0.825l-11.121,0.049   c2.398-0.094,4.228-0.166,6.427-0.252l10.682,0.21c-13.542,0.289-7.332,0.722-13.087,1.143   c-12.393-0.177-10.227,0.111-18.021-0.021c0.783-0.594-23.896-1.015-38.167-1.396c2.216,0.008,5.077,0.018,6.621,0.023   c10.365-0.375-7.133-0.495-7.516-0.658l-7.555,0.297c1.422-0.041,3.389-0.18,0.167-0.264c-10.227,0.11-9.632,0.699-19.842,0.811   c-0.767-0.327,7.866-0.823,1.516-0.995c-2.188-0.285-9.16-1.044-22.725-0.755c-0.961,0.125-4.477,0.195-8.554,0.249   c0.566-0.018,1.277-0.03,1.533-0.054l-9.01-0.356c7.677-0.558,15.526,0.263,23.242-0.297l0.655-0.53   c6.005-0.002,14.16-0.231,17.909-0.506c-9.154-0.09-11.082,0.049-21.32,0.159c-1.433-0.335,5.777-0.584,6.816-0.62l-1.527,0.302   c12.209,0.439,18.253-0.508,33.451-0.41c2.294,0.021,0.895,0.061,0.383,0.161c12.304-0.514,24.375,0.19,36.334-0.487l-3.899,0.279   c8.143-0.255,24.063-0.753,39.974-1.252l0.127-0.207c-1.766-0.124,4.205-0.117,7.41-0.033l-0.017,0.003   c7.978-0.24,15.644-0.47,21.914-0.658c-2.005-0.127-4.571-0.234-7.516-0.264c-2.494,0.242-17.114,0.044-15.109,0.594   c-6.755-0.332-17.637,0.145-22.597-0.064c9.037,0.354-6.294,0.52-7.877,0.823c-3.039-0.348-13.394,0.026-12.21-0.441   c-1.783-0.122,4.438,0.31,8.282,0.03c9.466-0.436-17.331-0.383-5.538-0.797c-14.998,0.328-34.763,0.186-50.233,0.616l8.66,0.191   c-6.877-0.068-23.153,0.036-24.369-0.19c5.11-0.042,11.082-0.09,17.62-0.143c0.316-0.527-15.709,0.003-16.437-0.322l-18.987,0.873   l8.316,0.029c-5.238,0.32-22.625-0.066-35.513-0.141c7.394-0.722,19.442-0.019,33.002-0.308c9.849-0.274-6.083-0.697,3.238-0.87   c-2.417-0.168-8.499-0.148-11.499,0.033l-3.677-0.131c8.315-0.656,26.958-0.51,39.367-1.074c-1.088,0.07-2.039,0.145-2.383,0.221   c9.554,0.254,19.259,0.244,28.574,0.07c-4.927-0.207-6.877-0.066-9.693,0.01c-0.35-0.162,8.443-0.232,11.771-0.412   c-8.665-0.191-1.616-0.387-7.099-0.495c5.644-0.156,10.216-0.111,17.093-0.042c3.565,0.248-2.95,0.342-2.223,0.666   c7.083-0.195,10.321,0.582,20.687,0.207c-13.787-0.137,3.633-0.707,8.383-0.925l-2.312-0.023c4.372-0.381,8.083-0.396,11.104-0.048   c-5.644,0.156-11.104,0.048-9.499,0.436c3.728-0.017,7.443-0.033,11.666-0.15l-3.839,0.28l18.525-0.081   c2.934-0.342,7.833-0.824,10.399-1.328c4.443,0.31,10.632,0.052,14.848-0.067l-1.961,0.143c4.086,0.146,10.674,0.158,16.433,0.096   c2.879-0.031,5.551-0.081,7.599-0.142c1.028-0.039,1.9-0.072,2.563-0.098c0.712-0.033,1.199-0.059,1.407-0.092   c0.787,0.054,0.679,0.106-0.021,0.159c-0.672,0.045-1.911,0.129-3.435,0.232c-2.951,0.184-7.001,0.436-9.946,0.619   c-2.944,0.206-4.781,0.395-3.303,0.515c0.739,0.06,2.308,0.103,4.98,0.122c2.69-0.001,6.494-0.001,11.688-0.003   c4.136,0.102,6.84,0.412,8.728,0.586c1.889,0.188,2.965,0.277,3.828,0.306c1.717,0.108,2.613-0.144,7.27,1.107   c0,0-0.547-0.071,0.343,0.28c3.486,1.191,5.37,1.942,7.119,2.603c1.737,0.684,3.344,1.292,6.036,2.722   c-1.893-1.167-4.311-2.437-6.538-3.41c-2.225-0.98-4.246-1.674-5.25-1.946c1.12,0.166,4.78,1.485,8.613,3.445   c3.855,1.923,7.812,4.529,10.19,6.102c-3.205-1.871-0.239,0.164,2.677,2.566c2.93,2.396,5.743,5.222,3.584,3.353   c5.237,5.148,9.886,11.188,13.274,16.997c3.421,5.795,5.606,11.292,6.884,14.969c0.978,4.939,1.773,9.243,2.238,14.391   c0.409,5.125,0.552,11.171-1.203,19.128c0.55-2.441,1.079-6.946,1.307-10.427c-0.11-4.628-0.201-0.423-0.604,3.116   c-0.194,1.772-0.465,3.377-0.557,3.661c-0.111,0.284,0.05-0.746,0.271-4.267c-0.238,3.011,0.308,0.243,0.378-2.864   c0.228-5.431-0.573-10.493-0.662-9.115c-0.001,0,0.176,3.262,0.018,6.508c-0.126,3.25-0.583,6.463-0.583,6.463   s0.087-1.128,0.135-2.257c0.052-1.129,0.063-2.258,0.063-2.258c0,0-0.3,4.916-1.363,9.698c-0.508,2.393-1.166,4.747-1.726,6.488   s-0.992,2.879-0.992,2.879c-0.072,0.535,0.629-1.16,0.948-2.047c-1.683,5.414-4.081,10.812-7.158,15.87   c-3.073,5.058-6.82,9.771-11.043,13.876c-4.217,4.112-8.901,7.616-13.736,10.392c-4.834,2.784-9.812,4.838-14.58,6.221   c-0.792,0.585-4.141,1.843-9.132,2.731c-2.492,0.442-5.389,0.779-8.533,0.896c-1.612,0.055-3.121,0.051-4.696,0.069   c-1.574,0.012-3.188,0.023-4.825,0.035c-13.096,0.083-27.656,0.097-35.292,0.526c4.094-0.401,6.333-1.108,3.8-1.399   c3.405-0.059,10.377-0.623,18.098-0.506c1.233,0.225,10.771,0.479,4.633,0.735c21.342-0.159-2.889-0.613,3.411-1.133   c-23.647,0.136-37.518,0.954-52.444,1.283l-0.378-0.165l-11.271,0.313c9.21,0.093,8.755,0.885-3.116,0.607l1.444-0.039   c-6.771-0.333-20.858,0.059-31.436,0.007l-7.171,0.458c-10.593-0.052-11.049-0.905-14.493-1.416   c-4.151-0.015-7.863,0.018-11.281,0.081c-1.695,0.038-3.4,0.055-4.8,0.145c-1.455,0.094-2.85,0.263-4.196,0.493   c-5.38,0.953-9.997,2.753-14.593,5.441c-1.104,0.486-3.155,1.577-5.294,3.084c-2.148,1.492-4.358,3.408-6.03,5.119   c-1.688,1.697-2.847,3.167-3.227,3.526c-0.351,0.381,0.005-0.398,1.898-2.782c-2.212,2.663-3.38,4.804-4.245,6.647   c-0.853,1.854-1.387,3.443-1.978,5.305c-0.58,1.864-1.231,4.001-1.942,7.088c-0.354,1.544-0.69,3.334-0.967,5.459   c-0.129,1.064-0.24,2.213-0.313,3.457c-0.057,1.361-0.118,2.821-0.183,4.392c0,0-0.09-1.666-0.18-3.333   c-0.042-0.793-0.073-1.517-0.079-2.092c-0.015-0.566-0.005-0.944-0.004-0.944c-0.161,2.642-0.037,6.039-0.041,9.336   c0.031,3.33,0.062,6.758,0.094,10.214c0.076,6.914,0.153,13.948,0.226,20.568c0.141,13.24,0.225,24.824,0.036,30.482   c-0.645-4.53-0.972,3.139-1.297,12.485c-0.081,2.337-0.165,4.778-0.248,7.16c-0.045,1.191-0.089,2.367-0.133,3.508   c-0.049,1.093-0.098,2.151-0.143,3.156c-0.2,2.599-0.438,5.011-0.754,6.147c0.144-0.58,0.241,0.719,0.32,2.15   c0.08,1.442,0.142,3.044,0.219,3.303c-0.026,0.345-0.057,0.737-0.091,1.18c0.811-0.669,2.119-1.914,3.493-3.578   c-1.955,1.792-1.256,0.696-0.877-0.001c0.383-0.701,0.602-1.158-1.652,1.253c-0.026-0.519-0.061-1.198-0.102-2.019   c0.112,0.449,0.229,0.916,0.353,1.413c1.912-2.4,3.596-4.503,5.268-6.466c0.206-0.238,0.416-0.483,0.631-0.733l0.318-0.364   c0.135-0.15,0.121-0.15,0.49-0.533c1.155-1.199,2.362-2.453,3.626-3.766c2.541-2.614,5.334-5.441,8.424-8.519l0.157,0.589   l-11.468,11.242c0.355-0.218,0.255-0.018-0.13,0.445c-0.245,0.284-0.646,0.749-1.111,1.288c-0.705,0.795-1.655,1.799-2.234,2.504   c1.264-1.211,2.228-2.108,2.965-2.77c0.683-0.634,1.237-1.149,1.687-1.566c0.485-0.442,0.862-0.775,1.152-1.02   c1.159-0.978,0.929-0.546,0.706-0.137c-0.446,0.818-0.866,1.546,9.907-9.277c1.844-2.327,0.593-0.876,6.11-6.585   c-2.627,2.652-2.846,3.385,1.413-0.865l3.787-4.383c8.163-6.92-12.078,12.889-5.207,6.891c-4.055,4.287-9.59,10.139-13.788,14.576   c-1.04,1.118-1.997,2.147-2.827,3.041c-0.398,0.44-0.767,0.847-1.099,1.215c-0.275,0.321-0.521,0.608-0.732,0.856   c-0.844,1.017-1.156,1.526-0.488,1.096c0.775-0.761,1.496-1.471,2.171-2.134c0.739-0.744,1.427-1.437,2.072-2.086   c1.281-1.306,2.374-2.451,3.343-3.492c1.938-2.082,3.378-3.742,4.839-5.422c2.923-3.357,5.929-6.787,13.156-13.799l1.719-1.313   c4.87-5.146,5.351-6.283,7.894-9.224c0.363-0.132,1.722-1.318,4.972-4.502c7.978-8.937,13.496-14.644,20.774-22.968   c-20.371,21.156-18.114,17.387-39.194,39.168c3.204-3.514,18.177-18.714,18.588-20.156l0.173,0.574   c6.774-7.163,13.546-14.319,22.42-22.948l-5.132,5.553c2.835-2.965,5.492-5.617,8.019-8.08c1.269-1.226,2.496-2.412,3.694-3.569   c0.646-0.617,1.286-1.226,1.918-1.829c1.128-1.016,2.51-1.749,3.953-2.108c2.887-0.744,6.02-0.005,8.24,1.859   c2.205,1.796,3.508,4.719,3.361,7.551c-0.058,1.42-0.439,2.838-1.134,4.105c-0.171,0.318-0.364,0.623-0.571,0.919l-0.325,0.436   l-0.397,0.464l-0.875,0.935c-1.071,1.146-2.137,2.321-3.203,3.543c0.814-0.803,1.59-1.566,2.326-2.293   c0.366-0.365,0.723-0.721,1.07-1.066c0.359-0.377,0.592-0.548,1.273-1.338c1.147-1.395,1.801-2.986,2.043-4.525   c0.063-0.384,0.096-0.765,0.112-1.14c0.003-0.211,0.011-0.32,0.002-0.609l-0.023-0.435c-0.065-0.838-0.198-1.44-0.4-2.107   c0.6,1.914,0.594,4.086-0.151,6.102c-0.378,1.021-0.892,1.936-1.645,2.837l-0.292,0.332l-0.228,0.241l-0.3,0.309l-0.605,0.62   c-1.634,1.652-3.321,3.36-5.025,5.085c-3.425,3.433-6.943,6.9-10.218,10.112l-12.801,14.034c-0.068-0.303-8.583,8.191-4.777,3.794   c-9.947,9.38-13.942,14.487-19.432,20.162c-10.292,9.501,8.392-8.746,8.844-10.229c-13.806,13.462-28.098,28.066-35.449,36.09   c2.855-2.705,4.271-3.992,4.221-3.761c-0.531,0.296-5.992,5.818-9.058,8.878l-1.859,2.344c-5.266,4.938-4.691,4.079-0.538-0.44   c-1.222,1.198-2.47,2.486-3.737,3.816c-0.632,0.667-1.271,1.342-1.916,2.021l-0.967,1.023l-0.486,0.514l-0.626,0.622l-0.306,0.303   l-0.366,0.231l-0.748,0.471c-0.372,0.229-0.74,0.412-1.155,0.604l-0.137,0.062l-0.44,0.171l-0.226,0.08l-0.281,0.095l-0.171,0.054   l-0.271,0.077l-0.225,0.056l-0.396,0.079l-0.46,0.063l-0.612,0.056c-0.376,0.025-0.649,0.043-1.113,0.048l-0.513,0.007   l-0.445-0.102l-0.701-0.159l-0.593-0.154c-0.366-0.105-0.439-0.135-0.685-0.214l-0.224-0.078l-0.194-0.073l-0.062-0.025   l-0.031-0.013c-1.097-0.539-0.303-0.148-0.548-0.269l0.001,0.001l0.002,0.001c0.009,0.005,0.019,0.011-0.004-0.002l-0.332-0.184   c-0.896-0.469-1.665-1.13-2.353-1.845c-0.446-0.474-0.888-0.943-1.326-1.409c-0.408-0.456-0.813-0.908-1.212-1.355   c0.884,0.837,1.792,1.695,2.716,2.57c0.692,0.682,1.455,1.313,2.337,1.76l0.326,0.175c0.021,0.011,0.024,0.013,0.011,0.005   l-0.004-0.002l-0.001-0.001c-0.113-0.056,0.97,0.476,0.515,0.253l0.015,0.006l0.059,0.023l0.19,0.071l0.22,0.074l0.672,0.203   l0.586,0.148l0.687,0.153l0.424,0.095l0.466-0.007c0.45-0.007,0.723-0.023,1.092-0.048c0.355-0.04,0.707-0.017,1.631-0.24   l0.424-0.123l0.275-0.091l0.224-0.077l0.417-0.16l0.134-0.06c0.405-0.185,0.767-0.359,1.131-0.578   c0.246-0.151,0.492-0.303,0.735-0.452l0.332-0.203l0.296-0.296c3.152-3.145,6.266-6.251,8.976-8.954   c2.672-2.671,4.935-4.953,6.382-6.528c-3.495,3.593-6.323,6.418-8.795,8.827c-1.244,1.197-2.389,2.299-3.479,3.348   c-0.55,0.519-1.085,1.024-1.611,1.522c-0.264,0.247-0.526,0.493-0.787,0.737l-0.404,0.376l-0.498,0.445l-0.401,0.359l-0.183,0.105   c-0.247,0.143-0.488,0.281-0.729,0.421c-0.359,0.203-0.716,0.363-1.11,0.529l-0.134,0.055l-0.344,0.132l-0.047,0.015l-0.223,0.067   l-0.665,0.186l-0.218,0.05l-0.337,0.063c-0.183,0.026-0.318,0.04-0.43,0.05l-0.583,0.033c-0.362,0.012-0.636,0.016-1.071,0.009   l-0.476-0.007l-0.32-0.072c-0.264-0.059-0.347-0.085-0.488-0.123l-0.375-0.106l-0.417-0.125l-0.448-0.152l-0.231-0.083   l-0.167-0.063l-0.149-0.06l-0.019-0.008l-0.464-0.228l0.004,0.003c0.002,0.001,0.011,0.006-0.003-0.003l-0.435-0.253   c-0.291-0.169-0.573-0.354-0.84-0.563c-0.266-0.212-0.525-0.437-0.773-0.676c-0.222-0.229-0.447-0.46-0.673-0.692   c-0.326-0.345-0.656-0.695-0.994-1.054c-1.363-1.42-2.837-2.955-4.498-4.685c-3.345-3.435-7.492-7.589-13.1-13.042   c-0.155-0.388,3.806,3.123-0.441-1.131c-9.936-9.758-3.072-2.073-6.417-4.879c7.731,7.43,11.111,11.104,15.205,15.811l-2.22-1.826   c-0.204-0.409-4.959-5.175-6.263-6.676l-1.626-0.825c1.009,0.122-6.269-7.832-12.421-13.652c5.728,6.371,4.11,4.72,5.251,6.871   c-8.896-7.938-9.027-9.968-18.969-18.896c0.85,0.564,9.192,8.694,2.185,1.468c-5.873-5.911-5.433-4.779-9.494-8.621   c4.819,4.081,3.951,2.664,9.213,7.049c10.515,10.421,4.218,4.228,14.611,14.298l-8.349-8.974c8.929,8.81,6.873,6.027,7.745,6.616   c-14.77-15.522-11.976-10.854-21.624-20.695c-4.951-4.444,9.075,9.182,1.46,2.098c-9.059-9.166-2.319-1.836-12.708-11.904   l1.882,1.543c-2.907-3.347-6.269-6.167-9.924-9.747c-4.091-3.867,3.221,5.79-13.164-10.545c0.904,0.698,1.264,0.927,1.307,0.885   l19.063,12.854c-8.268-8.307-17.167-17.247-26.391-26.516l-0.864-0.873c-0.298-0.31-0.543-0.527-0.927-0.964   c-0.687-0.801-1.173-1.782-1.391-2.817c-0.468-2.06,0.213-4.374,1.697-5.837c1.516-1.559,3.785-2.219,5.868-1.762   c1.043,0.225,2.012,0.697,2.835,1.417c0.388,0.344,0.664,0.652,0.958,0.943l0.883,0.896c4.705,4.793,9.453,9.631,14.208,14.475   c3.914,5.128-14.201-13.2-13.3-11.752c0,0-0.54-0.555-1.349-1.388c-0.405-0.416-0.877-0.901-1.382-1.422   c-0.494-0.517-1.044-1.11-1.756-1.479c-1.402-0.791-3.132-0.751-4.246-0.309c-0.566,0.208-0.998,0.479-1.28,0.688   c-0.284,0.209-0.428,0.352-0.428,0.352c0.036-0.09,0.362-0.479,1.037-0.884c0.666-0.399,1.724-0.774,2.964-0.688   c1.225,0.059,2.621,0.665,3.573,1.69c0.941,0.921,1.901,1.86,2.795,2.734c3.581,3.491,6.136,5.908,2.41,1.728   c-0.977-0.956-1.919-1.88-2.833-2.774c-0.456-0.448-0.904-0.89-1.346-1.324c-0.464-0.437-0.81-0.848-1.412-1.329   c-1.121-0.876-2.523-1.284-3.854-1.226c-1.335,0.054-2.609,0.571-3.571,1.401c-1.977,1.647-2.556,4.479-1.641,6.66   c0.221,0.548,0.524,1.058,0.892,1.511c0.399,0.474,0.744,0.773,1.091,1.132c0.698,0.696,1.391,1.386,2.083,2.074   c5.535,5.505,11.015,10.866,18.613,17.935c-1.974-2.582-6.83-7.385-12.327-12.793c-2.739-2.713-5.635-5.581-8.445-8.364   c-1.482-1.397-1.914-3.673-1.192-5.428c0.682-1.787,2.394-2.938,4.028-3.065c-1.372,0.18-2.579,0.97-3.306,2.028   c-0.738,1.058-0.991,2.368-0.781,3.554c0.199,1.207,0.868,2.211,1.764,2.977c0.862,0.821,1.709,1.628,2.55,2.43   c-0.555-0.565-1.113-1.133-1.673-1.702c-0.54-0.576-1.176-1.132-1.611-1.717c-0.889-1.213-1.125-2.883-0.593-4.306   c0.511-1.427,1.782-2.565,3.275-2.896c1.49-0.353,3.141,0.099,4.233,1.202c4.746,4.832,9.644,9.818,14.691,14.958l2.437,2.143   c-6.79-6.949-11.487-11.758-12.093-12.378c9.056,9.162,17.075,16.509,18.125,16.669l-1.603-1.635l3.431,3.153   C117.95,333.052,120.059,335.219,122.155,337.372z M149.216,112.145c0.783-0.061,1.4-0.131,1.855-0.219   C150.599,112.018,151.127,112.077,149.216,112.145z M221.778,371.177c-12.231,12.071-24.566,24.244-36.319,35.843   c21.961-20.205,37.44-34.354,2.264,0.79c-0.708,0.735-1.357,1.465-2.115,2.205l-0.099,0.066l-0.193,0.135   c0.058-0.034,0.117-0.068,0.204-0.118l0.039-0.022l0.056-0.054c4.763-4.496,12.572-12.322,19.904-19.768   c2.841-3.188,8.848-9.924,14.12-15.837c2.62-2.972,5.057-5.736,6.828-7.744c0.876-1.012,1.588-1.832,2.075-2.394   c0.482-0.565,0.734-0.875,0.694-0.861c-2.384,1.894-5.229,5.275-9.19,9.086L221.778,371.177z M231.899,364.002   c6.983-6.787,5.22-5.414,6.112-6.656c-2.401,2.445-4.798,4.887-7.168,7.301C231.802,363.775,232.317,363.385,231.899,364.002z    M237.422,357.583c-0.778,0.771-1.446,1.422-1.815,1.744L237.422,357.583z M101.898,332.354c0.311,0.301,0.422,0.409,0.717,0.696   c-1.613-1.64-3.229-3.283-4.916-4.998C98.331,328.74,99.567,330.019,101.898,332.354z M115.444,346.76l1.955,1.313   c-1.504-1.528-3.04-3.088-4.61-4.684C113.166,344.056,113.585,344.729,115.444,346.76z M159.307,392.735   c3.218,2.446,12.721,11.915,13.747,12.051c0.719,0.491-1.233-1.548-3.435-3.823c-2.486-2.51-5.141-5.189-7.956-8.031   c-0.163-0.033-0.785-0.534-1.782-1.415c2.737,2.849,4.492,4.825,3.087,3.967c-6.584-7.776-6.858-6.01-14.467-13.924   C145.718,379.402,156.828,390.508,159.307,392.735z M381.279,101.053c-0.313-0.058-1.384-0.197-2.89-0.373   c0,0,1.941-0.071,3.882-0.143c1.961-0.05,3.926,0.03,3.926,0.03c6.989,0.619,13.111,2.41,18.727,4.745   c5.624,2.357,10.779,5.251,16.023,8.718c4.545,3.747,6.416,6.344,8.194,8.725c-1.899-2.108-3.813-3.956-5.457-5.439   c-3.392-2.726-6.372-4.642-8.883-6.12c-2.519-1.472-4.574-2.507-6.263-3.325c-3.387-1.612-5.278-2.423-6.977-3.182   c-1.706-0.734-3.233-1.403-6.099-2.151c-1.433-0.369-3.204-0.742-5.507-1.045C387.655,101.198,384.815,100.971,381.279,101.053z    M423.541,215.727c1.032-0.957,1.326-1.381,1.326-1.381c-5.386,5.379-11.53,9.553-17.827,12.502   c-6.302,2.958-12.748,4.698-18.86,5.467c-3.053,0.4-6.046,0.516-8.882,0.527c-2.84,0.031-5.563,0.06-8.161,0.088   c-5.196,0.043-9.897,0.056-14.051,0.044c3.234,0.452,18.096,0.826,25.231,0.988l-6.301,0.535l-3.916-0.41l-10.888,0.474   c3.044,0.351,11.837,0.278,17.715,0.547c0.148-0.031,1.354-0.069,3.364-0.17c1.989-0.108,4.644-0.354,7.415-0.814   c2.772-0.455,5.655-1.134,8.134-1.882c2.48-0.747,4.56-1.544,5.8-2.078c0,0-3.659,1.24-7.434,2.002   c-3.766,0.806-7.594,1.125-7.594,1.126c2.057-0.141,8.181-0.983,14.421-3.242c3.122-1.101,6.261-2.508,8.994-3.983   c2.737-1.47,5.071-2.993,6.71-4.163c-0.009-0.151-2.91,1.678-6.153,3.352c-3.228,1.708-6.808,3.209-7.526,3.775   c-0.835,0.122,2.469-1.25,4.674-2.459c1.108-0.591,1.959-1.104,1.974-1.184c0.011-0.09-0.796,0.292-3.1,1.257   c2.64-1.336,5.598-3,8.548-4.983c2.953-1.978,5.894-4.276,8.567-6.729c5.385-4.885,9.544-10.451,11.849-14.162l1.315-0.955   c2.474-4.176,2.868-5.82,3.441-7.587c0.271-0.894,0.556-1.838,1.011-3.232c0.447-1.396,1.082-3.237,1.873-5.989   c-0.843,3.417-1.364,4.947-1.481,5.554c-0.131,0.604,0.078,0.267,0.314-0.161c0.235-0.427,0.491-0.946,0.473-0.685   c-0.029,0.257-0.281,1.316-1.309,3.956c0.777-1.637,0.929-1.603,1.395-2.489c0.226-0.446,0.529-1.125,0.96-2.386   c0.424-1.262,0.995-3.105,1.579-5.91c0.545-4.742,0.887-7.719,1.224-10.647c0.271-2.926,0.467-5.859-0.351-10.301   c-0.21-2.998,0.104-1.414,0.32-0.536c0.103,0.438,0.182,0.697,0.161,0.105c-0.03-0.591-0.116-2.041-0.619-4.98   c-0.739-3.342-1.525-5.732-2.166-7.474c-0.646-1.74-1.159-2.833-1.537-3.548c-0.768-1.423-1.008-1.339-1.451-1.608   c1.137,2.918,1.894,5.242,2.515,7.215c0.616,1.975,1.082,3.605,1.493,5.18c0.784,3.15,1.458,6.097,1.521,11.272   c0,0-0.079-1.286-0.308-3.199c-0.224-1.913-0.632-4.447-1.207-6.937c-0.563-2.493-1.301-4.934-1.923-6.733   c-0.622-1.802-1.104-2.973-1.104-2.973c1.045,3.585,1.645,6.271,2.137,8.532c-0.841-3.975-2.012-7.238-3.226-9.913   c-0.693-1.523-1.38-2.902-2.044-4.157c2.336,5.161,3.786,10.343,4.517,14.422c0.738,4.084,0.844,7.049,0.776,7.937l-0.425-1.522   c0.045,1.989,0.151,4.59,0.147,7.075c0.008,2.484-0.089,4.85-0.153,6.348c-0.549,5.005-1.672,9.942-2.963,13.792   c-1.276,3.857-2.649,6.631-3.31,7.528c0,0,0.351-0.892,0.7-1.783c0.34-0.895,0.646-1.799,0.646-1.799   c-1.193,2.846-2.303,4.981-3.333,6.821c-1.038,1.836-2.011,3.373-3.099,4.95c-1.093,1.574-2.303,3.19-3.932,5.1   C428.518,210.957,426.468,213.165,423.541,215.727z M208.089,374.505c-2.269,1.69-4.525,3.394-7.861,6.272   c-3.344,2.889-7.276,6.462-12.785,11.784c0.028-2.884,0.059-6.138,0.095-9.809c-0.005-3.644-0.011-7.701-0.018-12.221l0.077,2.783   c0.701-17.82-0.927-34.746-0.148-56.427c0.421,10.521,0.383,9.954,1.346,21.57l-0.316-11.288c0.608,3.128,0.293-8.132,0.322-16.415   l0.723,7.311c-0.208,4.972-0.283,17.859-0.118,17.481c-0.08-2.822-0.913,17.015-0.703,27.791c0.49-1.111,0.292-23.864,1.092-13.704   c-0.335-8.954,0.153-10.065-0.019-19.425c0.336,8.977,0.668,2.222,1.025,8.904l-0.167-15.349c0.163-0.399,0.362,22.354,0.965,9.776   c-0.257-6.148,0.065-22.569-0.462-22.863l0.162-0.378c0.114-11.504-0.747-5.061-0.446-19.187c-0.265-0.167-0.449,2.527-0.394,7.588   c0.118,4.277,0.48,4.933,0.554,13.743c-0.413,3.949,0.051-10.627-0.646-4.511c-0.347,3.038,0.3,23.258-0.484,16.814l0.113-11.481   c-0.528-0.295-0.498-8.61-0.924-8.377c-0.194-7.021,0.4-13.648-0.059-20.82c-0.171-1.488-0.415-0.933-0.582-1.488   c-0.083-0.278-0.147-0.833-0.173-2.062c-0.018-1.227-0.035-3.067,0.358-5.938c0.44-2.219,1.136-5.496,2.454-9.15   c1.307-3.652,3.268-7.661,5.819-11.315c2.532-3.666,5.634-6.953,8.705-9.49c3.067-2.548,6.075-4.354,8.254-5.492   c0,0,1.879-1.06,3.864-1.927c1.979-0.878,4.045-1.554,4.045-1.554c-0.402-0.083-4.392,1.161-7.405,2.685   c-1.514,0.739-2.809,1.471-3.436,1.819c-0.631,0.339-0.617,0.265,0.54-0.541c0,0,2.937-1.759,6.124-3.01   c3.165-1.304,6.509-2.077,6.509-2.077l-0.977,0.446c2.193-0.534,4.436-0.968,6.657-1.261c2.23-0.294,4.393-0.4,6.524-0.442   c-1.096,0.101-2.529,0.135-4.006,0.258c-1.486,0.116-3.042,0.303-4.393,0.539c-2.704,0.471-4.571,1.082-3.567,1.117   c3.102-0.632,4.932-0.719,6.68-0.821c1.756-0.089,3.407-0.06,6.458-0.108c-1.316,0.039-2.45,0.093-2.283,0.17   c13.271,0.238,12.815-0.615,16.142-0.794c13.343-0.716-13.448-0.664-11.743-1.23l38.956-0.303   c-3.327,0.179-6.677,0.356-5.421,0.582c9.554,0.254,0.216,0.427,13.631,0.4c-0.955-0.752,16.893-0.469,26.369-0.903   c4.428,0.308,5.339,0.37-4.344,0.379c1.111,0.488,14.109,0.301,18.731,0.345c2.678-0.121,7.243-0.192,10.138-0.301   c-3.878-0.243-2.222-0.549,6.171-0.757l0.489-0.103c-13.76-0.134-35.146-0.667-43.772-0.167l2.438-0.242   c-15.926-0.422-34.657,0.877-42.001-0.045c0.678-0.365-3.199-0.084-2.922-0.611l-11.726,0.412l2.438-0.239   c0,0-4.987,0.03-9.974,0.06c-2.485,0.028-4.981-0.011-6.934,0.112c-1.925,0.114-3.198,0.296-3.198,0.296l0.53-0.16   c-4.847,0.762-8.996,2.164-12.504,3.764c-3.508,1.616-6.388,3.431-8.779,5.229c0.123,0.217,0.627-0.119-1.824,1.875   c-2.457,1.999-4.174,3.668-5.681,5.18c-0.011,0.012-0.011,0.012-0.01,0.014l-0.002-0.002c-1.703,1.742-3.07,3.252-4.436,4.958   c-1.357,1.709-2.724,3.616-4.156,6.293c0,0,0.507-1.052,1.381-2.57c0.874-1.517,2.143-3.483,3.576-5.328   c1.426-1.85,3.003-3.58,4.255-4.805c1.248-1.231,2.137-1.991,2.137-1.991c0.455-0.637,0.306-0.799-0.84-0.028   c-1.125,0.785-3.325,2.465-6.344,6.053c1.169-1.516,2.04-2.562,2.165-2.837c0.142-0.262-0.49,0.231-2.017,2.067   c-0.138,0.225-2.037,2.748-3.261,4.937c-1.246,2.176-1.97,3.886-0.748,1.957c-2.197,3.943-4.254,8.804-5.432,14.417   c-0.596,2.801-0.957,5.781-1.038,8.872c-0.041,3.008-0.083,6.112-0.126,9.288c-0.146,12.678-0.216,26.497,0.155,39.873   c-0.446-19.22-0.523,15.403-0.684-5.933c-0.625,14.893,0.615,12.814,0.518,27.996c-0.225,1.295,0.029-8.266-0.414-11.754   c-0.104,10.417,0.05,19.489,0.253,28.274c0.106,4.757,0.21,9.437,0.315,14.181c0.1,5.058,0.187,10.02,0.233,15.201   c3.164-3.221,6.4-6.473,9.839-9.865c0,0,0.222-0.05,0.444-0.1c0.233-0.062,0.466-0.122,0.466-0.122   C200.138,382.653,204.035,378.659,208.089,374.505z M241.815,339.917c3.284-3.362,6.614-6.772,9.999-10.237   c-0.337,0.33-0.651,0.638-1.004,0.983l9.707-10.263c-6.27,6.001-10.69,9.664-2.28,0.901c-0.58,0.865,2.104-1.47-0.798,1.599   c5.961-5.548,18.785-17.973,14.974-15.201c-10.565,11.549-3.24,1.914-11.563,10.968c2.161-2.501,4.436-4.868,6.7-7.18   c1.134-1.154,2.26-2.3,3.375-3.435c0.595-0.572,1.003-1.111,1.818-1.774c0.77-0.589,1.677-0.999,2.626-1.183   c-0.987,0.22-1.616,0.605-1.991,0.877c-0.374,0.282-0.508,0.463-0.482,0.507c0.061,0.116,0.748-0.393,2.078-0.655   c1.288-0.266,3.374-0.101,4.963,1.435c0.766,0.726,1.372,1.772,1.565,2.94c0.201,1.165,0,2.448-0.638,3.522   c-0.237,0.483-0.676,1.015-1.197,1.517c-0.515,0.522-1.092,1.109-1.717,1.744c-1.256,1.264-2.702,2.718-4.21,4.235   c-3.018,3.032-6.275,6.319-8.697,8.879c2.095-1.458-2.059,3.06,6.136-4.975c-2.894,3.061-7.434,7.733-12.758,12.731   c1.991-2.101,5.529-5.718,5.166-5.586c-3.624,3.039-7.511,6.952-9.789,8.98c-1.699,1.733-3.414,3.482-5.083,5.185   c0.531-0.476,1.003-0.875,1.359-1.141l-5.42,5.983c7.445-7.745,3.659-3.365,3.748-3.081c-0.17-0.575-4.938,4.842-7.525,7.454   l6.043-5.256c-2.531,2.926-9.923,9.354-8.105,8.317c12.138-11.827,16.677-16.501,27.395-27.453l-4.705,4.094   c6.004-6.222,8.021-7.976,10.249-9.892c1.113-0.957,2.28-1.955,4.025-3.572c0.873-0.809,1.89-1.771,3.116-2.962   c0.61-0.598,1.276-1.25,2.007-1.965c0.365-0.386,0.692-0.616,1.308-1.404c0.483-0.646,0.885-1.405,1.136-2.249   c0.184-0.692,0.288-1.542,0.234-2.333c-0.054-0.919-0.26-1.78-0.669-2.671c-0.39-0.86-1.054-1.743-1.769-2.357   c-0.851-0.74-1.776-1.238-2.857-1.531c-2.122-0.592-4.627-0.093-6.384,1.423c-0.485,0.423-0.711,0.689-1.008,0.979l-0.859,0.873   c-0.571,0.58-1.137,1.155-1.692,1.72c-4.441,4.521-8.169,8.398-8.03,8.82c1.55-1.892-9.041,8.045-13.489,13.001   c-4.685,5.708-20.331,21.493-15.337,16.966c4.252-4.24,9.686-10.236,13.432-13.317l-8.13,8.345l5.683-5.127   C239.576,340.789,240.12,340.791,241.815,339.917z M140.525,363.668c-0.088-0.093-0.203-0.213-0.311-0.326   c0.122,0.123,0.239,0.241,0.352,0.355L140.525,363.668z" fill="#202020"/><path d="M208.848,102.694c-3.35,0.18-11.632,0.15-10.01,0.538C198.638,102.805,213.636,103.166,208.848,102.694z" fill="#202020"/><path d="M198.943,102.277c-0.583,0.102-0.178,0.265-3.894,0.28l10.232-0.108L198.943,102.277z" fill="#202020"/><path d="M188.561,99.365c-5.277,0.318-8.621,0.497-16.904,0.468c-3.11-1.04,13.56-0.291,17.315-1.26   c-15.182-0.098-19.842,0.811-32.33,0.898C162.831,99.905,188.106,100.155,188.561,99.365z" fill="#202020"/><polygon fill="#202020" points="195.305,98.051 186.862,98.285 187.695,98.346 196.144,98.112  "/><path d="M378.166,107.081c0.19,0.082,0.662,0.122,1.307,0.137c0.629,0.016,1.503,0,2.274-0.017   c1.609-0.034,3.46-0.027,4.749,0.055c-1.044-0.107-2.3-0.216-3.68-0.259c-0.705-0.022-1.377-0.024-2.183-0.006   C379.827,107.008,379.001,107.036,378.166,107.081z" fill="#202020"/><path d="M339.049,105.413l-64.403,0.313C293.177,105.636,310.285,105.553,339.049,105.413z" fill="#202020"/><path d="M375.939,228.874c2.143-0.047,4.136-0.091,6.019-0.133c1.794-0.073,3.476-0.219,5.077-0.425   c3.203-0.412,6.089-1.035,8.92-1.843c2.83-0.813,5.611-1.812,8.567-3.128c2.953-1.321,6.088-2.96,9.515-5.212   c-4.621,2.784-8.707,4.61-12.4,6.012c-3.7,1.39-7.027,2.341-10.309,3.034c-3.282,0.686-6.529,1.102-10.092,1.172   c-3.769,0.056-7.899,0.033-12.757-0.134L375.939,228.874z" fill="#202020"/><path d="M381.946,226.275c3.02,0.625-13.271,0.723-10.739,1.173c5.827-0.075,7.184-0.22,8.406-0.341   c0.593-0.062,1.235-0.111,2.204-0.155c0.995-0.055,2.457-0.093,4.87-0.3c0,0-1.194-0.046-2.38-0.142   C383.121,226.42,381.946,226.275,381.946,226.275z" fill="#202020"/><path d="M446.087,191.324c0,0-0.414,1.331-0.885,2.646c-0.469,1.315-0.994,2.613-0.994,2.613   s0.454-1.03,0.872-2.074c0.422-1.042,0.806-2.099,0.806-2.099L446.087,191.324z" fill="#202020"/><polygon fill="#202020" points="303.226,226.826 305.136,226.688 296.465,226.494  "/><path d="M307.047,226.547l-1.911,0.141L307.047,226.547z" fill="#202020"/><path d="M444.403,198.461c0,0,0.979-1.867,1.829-3.797c0.864-1.924,1.601-3.904,1.601-3.904s0.287-1.007,0.542-2.02   c0.256-1.013,0.479-2.031,0.479-2.031c-0.001,0-0.832,3.035-1.961,5.974C445.79,195.631,444.402,198.46,444.403,198.461z" fill="#202020"/><path d="M384.991,234.31c0,0,1.791-0.148,3.568-0.4c1.778-0.242,3.537-0.588,3.537-0.588   c-0.696,0.147-3.482,0.5-5.597,0.646C384.388,234.123,382.949,234.199,384.991,234.31z" fill="#202020"/><polygon fill="#202020" points="250.271,226.566 241.788,226.801 242.655,226.862 251.11,226.627  "/><path d="M330.306,236.114c4.815,0.47-13.91,0.127-4,0.543C335.121,236.584,331.544,236.338,330.306,236.114z" fill="#202020"/><path d="M228.047,233.367c-1.123,0.148-2.295,0.378-3.405,0.668C225.974,233.735,227.102,233.515,228.047,233.367z" fill="#202020"/><path d="M228.047,233.367c1.811-0.25,3.639-0.349,5.32-0.356c1.674,0,3.251,0.031,4.511-0.043   C233.266,232.745,231.613,232.811,228.047,233.367z" fill="#202020"/><path d="M194.357,255.758c0,0,0.435-0.703,0.893-1.391c0.455-0.69,0.94-1.359,0.94-1.359   c-0.867,1.452-1.042,1.862-0.858,1.561c0.194-0.295,0.765-1.295,1.592-2.558c2.123-2.782,1.955-2.673,2.133-3.07   c0.422-0.568,0.85-1.126,1.329-1.725c-0.705,0.833-1.316,1.597-1.808,2.264C195.064,253.671,193.606,256.711,194.357,255.758z" fill="#202020"/><path d="M203.695,387.202c-16.603,16.356-20.589,20.223-19.461,18.579c-1.484,1.477-2.798,2.784-3.854,3.834   c-0.017-15.252-0.541-12.891-0.672-24.896c-0.001,11.661-0.001,19.027-0.002,26.523   C185.889,405.086,192.296,398.701,203.695,387.202z" fill="#202020"/><path d="M179.708,384.719c-0.009-2.82-0.019-5.514-0.029-8.787C179.668,379.606,179.682,382.328,179.708,384.719z" fill="#202020"/><path d="M235.1,237.025c0,0-0.458,0.038-1.144,0.094c-0.65,0.057-1.513,0.156-2.369,0.286   c-1.714,0.244-3.385,0.646-3.385,0.646c0,0,0.618-0.115,1.241-0.204c0.622-0.097,1.248-0.168,1.248-0.168s1.07-0.223,2.159-0.378   c0.544-0.087,1.091-0.145,1.503-0.198C234.802,237.056,235.1,237.025,235.1,237.025z" fill="#202020"/><path d="M217.994,373.161c-1.638,1.605-4.227,4.218-5.592,5.405C212.194,379.293,219.629,371.558,217.994,373.161z" fill="#202020"/><path d="M186.716,382.411c0.224-1.505,0.09-9.547,0.176-12.734c-0.023,2.319-0.204,4.359-0.31,6.564   C186.476,378.395,186.444,380.592,186.716,382.411z" fill="#202020"/><path d="M242.024,347c-1.639,1.605-4.307,3.926-3.44,2.632C236.354,352.115,233.62,355.76,242.024,347z" fill="#202020"/><polygon fill="#202020" points="194.932,386.194 193.645,387.305 187.242,394.04  "/><path d="M192.042,374.013c-0.016-0.122-0.029-0.23-0.042-0.326c-0.016-0.233-0.03-0.436-0.042-0.609   c-0.029-0.346-0.058-0.578-0.087-0.713c-0.059-0.27-0.121-0.153-0.183,0.204c-0.031,0.178-0.063,0.416-0.094,0.696   c-0.015,0.14-0.031,0.29-0.048,0.448c-0.015,0.072-0.031,0.148-0.048,0.228c-0.06,0.335-0.128,0.716-0.191,1.07   c-0.127,0.739-0.252,1.464-0.369,1.465c-0.058-0.001-0.114-0.188-0.167-0.662c-0.026-0.237-0.052-0.547-0.077-0.941   c-0.011-0.2-0.023-0.419-0.037-0.659c-0.011-0.314-0.022-0.655-0.035-1.026c-0.046,1.624-0.08,2.826-0.104,3.705   c-0.015,0.837-0.01,1.361,0.007,1.654c0.036,0.589,0.125,0.262,0.226-0.145c0.202-0.825,0.453-1.882,0.417,2.009   c0.073-2.41,0.248-4.193,0.426-5.21C191.773,374.173,191.954,373.844,192.042,374.013z" fill="#202020"/><path d="M191.168,380.411c-0.023,0.699-0.036,1.447-0.038,2.236C191.146,381.755,191.158,381.034,191.168,380.411z" fill="#202020"/><path d="M279.299,305.556c-1.614-0.739-2.885-0.67-3.931-0.461C276.697,304.836,278.05,304.997,279.299,305.556z" fill="#202020"/><path d="M214.635,359.59l-9.627,10.554c6.432-7.048,23.407-23.987,21.89-23.391   c-5.585,5.398-12.069,12.127-14.584,15.04L214.635,359.59z" fill="#202020"/><path d="M225.074,359.256l4.179-4.544l-5.501,5.395C225.382,358.614,222.901,361.772,225.074,359.256z" fill="#202020"/><path d="M222.689,361.15l1.063-1.044C223.509,360.327,223.17,360.656,222.689,361.15z" fill="#202020"/><path d="M257.491,321.586c-3.292,3.228-5.888,5.849-8.779,8.904C250.032,329.344,258.237,321.302,257.491,321.586z" fill="#202020"/><polygon fill="#202020" points="195.031,390.641 202.152,383.362 194.33,391.253  "/><polygon fill="#202020" points="169.792,389.792 168.638,388.463 162.506,382.662 163.68,384.01  "/><path d="M213.73,388.501c4.925-4.828,8.316-9.047,6.952-7.857l-9.436,9.473c2.768-2.044,2.612-2.633,8.185-8.023   L213.73,388.501z" fill="#202020"/><path d="M183.588,291.729c0.342,2.989,0.144,17.62-0.181,18.387c-0.141-1.966-0.276-9.898-0.483-4.916l0.84,11.576   c-0.523,15.398-1.104-11.704-1.4-19.309c-0.108,15.688,0.444,20.337,0.44,37.023c0.075-4.922,0.285-8.032,0.465-10.632   c0.591-0.566,0.329,14.981,0.376,26.097c0.257-7.077,0.473-2.983,0.705,2.172c0.019,0.928,0.052,1.544,0.092,1.983   c0.028,0.6,0.055,1.166,0.083,1.75l-0.001-1.334c0.066,0.095,0.146-0.199,0.256-1.16c-0.172-9.327,0.322-16.46,0.33-22.465   c-0.961,5.934-0.222-20.447-0.518-27.996l-0.095-8.716l-0.002-3.261c0.105-0.655,0.238,0.272,0.428,5.244   c-0.188-4.128-0.128-18.037-0.427-16.659c0,0-0.026-1.726,0.21-4.294c0.224-2.566,0.777-5.97,1.745-9.265   c0.944-3.302,2.291-6.476,3.467-8.768c1.182-2.291,2.118-3.736,2.118-3.736c0.483-0.708,0.999-1.394,1.418-1.872   c0.488-0.818,0.555-0.969,0.438-0.898c0,0,0.267-0.385,0.802-1.082c0.526-0.704,1.333-1.709,2.418-2.938   c2.169-2.449,5.551-5.766,10.272-8.832c4.703-3.061,10.776-5.808,17.681-7.117c1.722-0.33,3.492-0.575,5.293-0.724   c0.901-0.076,1.81-0.122,2.724-0.152l1.376-0.021l1.58-0.001c4.232-0.002,8.532-0.004,12.832-0.006   c34.397-0.016,68.794-0.031,68.794-0.031c-6.788-0.076-12.659-0.295-19.659-0.401c10.505-0.638-11.476-0.115-8.393-0.719   c4.722-0.219,11.632-0.15,15.748-0.003c1.533-0.305-4.333-0.575-3.655-0.939c-17.354-0.383-20.009,1.075-36.974,0.854   c0.672-0.365,5.916-0.685-5.188-0.635l2.822-0.079c-17.781,0.409-13.854-0.826-25.047,0.176l0.294-0.527   c-1.002,0.041-2.123,0.085-3.333,0.134c-1.109,0.047-2.298,0.114-3.538,0.233c-2.48,0.232-5.165,0.654-7.82,1.289   c-5.325,1.24-10.449,3.481-13.889,5.507l0.367-0.322c-4.822,2.886-7.511,5.302-9.436,7.064c-1.909,1.789-3.033,3.004-4.195,4.296   c-1.147,1.304-2.342,2.692-4.019,5.129c-1.626,2.452-3.863,5.949-5.923,11.863c0,0,0.199-0.692,0.536-1.721   c0.347-1.025,0.84-2.385,1.404-3.722c1.112-2.68,2.559-5.221,2.558-5.222c-2.422,3.646-3.409,6.179-4.191,8.401   c-0.753,2.243-1.287,4.223-2.064,7.233c0.004-0.229-0.174-0.014-0.189-0.463c-0.004-0.445,0.105-1.575,1.007-4.41   c0,0-0.145,0.46-0.378,1.271c-0.229,0.811-0.542,1.974-0.836,3.387c-0.612,2.817-1.118,6.64-1.127,10.472   c-0.006,1.826,0.086,4.044,0.132,6.005c0.055,1.98,0.106,3.829,0.15,5.414c0.088,3.169,0.146,5.281,0.146,5.281   C183.373,302.689,183.363,292.985,183.588,291.729z" fill="#202020"/><path d="M182.803,334.491c-0.028,1.789-0.04,3.822-0.02,6.222C182.791,338.396,182.798,336.402,182.803,334.491z" fill="#202020"/><path d="M327.33,229.774l-9.666,0.005C320.658,229.811,323.781,229.821,327.33,229.774z" fill="#202020"/><path d="M183.955,390.709c0.136-5.259,0.231-3.2,0.318,0.592c0.086,3.774,0.165,9.25,0.266,10.416l-0.01-34.357   c-0.203,0.095-0.431-1.982-0.616-1.561L183.955,390.709z" fill="#202020"/><path d="M184.912,361.282c-0.142-0.711-0.268-2.933-0.388-5.421l0.005,11.498   C184.681,367.287,184.82,365.999,184.912,361.282z" fill="#202020"/><polygon fill="#202020" points="174.071,363.505 174.053,359.788 173.896,354.167  "/><path d="M174.965,305.384c-0.308,4.438-0.074,12.859,0.004,15.676C174.959,311.355,175.076,315.56,174.965,305.384z   " fill="#202020"/><polygon fill="#202020" points="171.664,317.377 171.49,308.022 171.429,308.894  "/><path d="M400.133,224.622c1.591-0.542,3.114-1.127,4.672-1.803C402.694,223.717,401.28,224.211,400.133,224.622z" fill="#202020"/><path d="M318.503,228.201c22.313,0.592-14.62,0.492-7.61,1.25l12.143-0.251l-1.033,0.203l14.81-0.066   c-3.038-0.348-5.321-0.37-4.66-0.735c19.77,0.143,6.232,0.434,20.736,0.895l22.098-0.066l-1.789,0.109   c1.861-0.008,2.683-0.054,3.322-0.113c0,0,1.163-0.003,3.199-0.01c0.523-0.003,1.103-0.006,1.732-0.01   c0.689-0.007,1.436-0.021,2.232-0.061c1.594-0.073,3.391-0.21,5.339-0.464c3.896-0.503,8.404-1.496,13.026-3.169   c4.624-1.66,9.34-4.023,13.675-6.952c4.339-2.923,8.281-6.409,11.553-10.052c3.274-3.645,5.893-7.423,7.828-10.829   c1.94-3.408,3.237-6.419,4.052-8.554c0.817-2.137,1.188-3.391,1.188-3.391c1.068-3.653,1.209-5.033,1.173-5.142   c-0.06-0.116-0.404,1.008-0.838,2.228c-0.424,1.224-0.954,2.537-1.188,2.875c-0.245,0.336-0.114-0.28,0.496-2.966   c-1.12,4.177-2.908,8.719-5.248,12.979c-2.335,4.263-5.208,8.227-8.124,11.483c-5.82,6.567-11.635,10.233-12.022,10.956   c0.428-0.418,1.288-1.174-1.712,0.628c0,0-2.042,1.448-4.224,2.703c-2.168,1.274-4.455,2.358-4.455,2.358s2.252-0.854,4.424-1.9   c2.183-1.024,4.267-2.242,4.267-2.242c-2.097,1.439-5.552,3.453-9.865,5.152c-4.299,1.722-9.454,3.077-14.571,3.67   c-2.553,0.303-5.105,0.437-7.493,0.419c-2.149-0.023-4.182-0.045-6.01-0.065c-3.657-0.056-6.501-0.133-7.834-0.226   c8.385-0.102,10.474-0.333,13.387-0.49c1.499-0.086,3.414-0.142,6.421-0.438c3.018-0.338,7.286-0.814,13.469-2.736   c-1.17,0.205-5.749,1.227-0.263-0.557c-3.55,1.209-7.173,2.06-10.807,2.566c-1.816,0.254-3.636,0.425-5.451,0.514   c-0.908,0.045-1.814,0.065-2.721,0.072l-2.486,0.005c-6.593,0.005-13.112,0.011-19.662,0.017   C345.906,227.817,332.682,227.89,318.503,228.201z" fill="#202020"/><path d="M343.31,105.984l0.217-0.066C343.031,105.953,342.87,105.98,343.31,105.984z" fill="#202020"/><path d="M352.497,106.074l13.343-0.714l-20.803,0.057l-1.511,0.501c1.838-0.127,9.132-0.381,11.959-0.185   L352.497,106.074z" fill="#202020"/><path d="M381.367,104.932c-10.813,0.205-10.179,0.801-4.334,1.068c-9.865,0.274-5.205-0.634-11.999-0.011   c0.223,0.426,12.382,0.176,15.177,0.098C380.211,106.086,381.329,104.927,381.367,104.932z" fill="#202020"/><path d="M442.137,158.499c0,0-0.166-0.825-0.372-1.641c-0.19-0.819-0.416-1.627-0.416-1.627   s0.385,2.026,0.616,4.074c0.249,2.045,0.336,4.101,0.336,4.101s0.012-1.224-0.032-2.451   C442.229,159.727,442.136,158.499,442.137,158.499z" fill="#202020"/><path d="M441.349,155.231c0,0-0.365-2.014-0.878-3.997c-0.497-1.987-1.145-3.932-1.145-3.932   c-0.001,0.598,0.022,1.178,0.274,2.487c0,0,0.506,1.333,0.937,2.696C440.981,153.844,441.349,155.231,441.349,155.231z" fill="#202020"/><path d="M429.199,128.445c-2.138-2.733-4.726-5.608-8.284-8.653c0,0,2.29,1.947,4.352,4.128   C427.359,126.073,429.199,128.445,429.199,128.445z" fill="#202020"/><path d="M434.359,136.26l-0.074-0.277c0,0-1.12-1.982-2.403-3.862c-1.27-1.89-2.682-3.676-2.682-3.676   C431.26,131.094,432.893,133.631,434.359,136.26z" fill="#202020"/><path d="M439.326,147.302c-0.027-0.693-0.043-1.456-0.663-3.421c-0.658-1.939-1.821-5.177-5.054-10.229   c0,0,0.177,0.582,0.353,1.164c0.161,0.584,0.322,1.167,0.322,1.167s0.386,0.673,0.938,1.698c0.543,1.029,1.239,2.417,1.87,3.834   C438.368,144.347,439.326,147.302,439.326,147.302z" fill="#202020"/><path d="M180.878,248.343c0,0,1.104-2.005,2.37-3.917c1.25-1.921,2.655-3.739,2.655-3.739l-0.657,0.719   c0,0-1.382,1.836-2.597,3.782c-1.232,1.935-2.31,3.956-2.31,3.956L180.878,248.343z" fill="#202020"/><path d="M222.779,219.147c2.196-0.494,3.882-0.784,5.419-1.027C225.838,218.404,223.984,218.797,222.779,219.147z" fill="#202020"/><path d="M259.782,215.207c9.938,0.416-13.709,0.55,4.693,0.734c1.622,0.387-7.004,0.886-15.67,0.693   c0.689-0.364,8.443-0.233,3.116-0.605c-5.755,0.421-7.943,0.134-5.938,0.683c-4.841,0.171-7.531,0.354-9.833,0.539   c-1.199,0.105-2.298,0.201-3.524,0.308c-1.272,0.133-2.672,0.299-4.43,0.56c1.57-0.186,3.365-0.323,5.332-0.362   c0.933-0.006,1.907-0.013,2.915-0.02c0.984,0,2.001,0.001,3.046,0.002c4.182,0.014,8.815,0.029,13.547,0.045   c9.463,0.022,19.321-0.013,26.748-0.365c8.188-0.66,3.222-1.561,3.255-2.514C281.808,214.682,260.582,214.576,259.782,215.207z" fill="#202020"/><path d="M244.145,214.256c-4.6-0.047-6.005-0.009-8.827,0.07C236.079,214.653,240.429,214.271,244.145,214.256z" fill="#202020"/><path d="M349.844,221.433c0.878-0.136,9.199-0.304,7.41-0.538l-12.615,0.171   C347.6,221.089,348.644,221.254,349.844,221.433z" fill="#202020"/><path d="M339.106,221.139l5.533-0.073C343.256,221.054,341.545,221.073,339.106,221.139z" fill="#202020"/><path d="M350.444,221.517c-0.2-0.028-0.378-0.053-0.6-0.084C349.666,221.461,349.699,221.49,350.444,221.517z" fill="#202020"/><path d="M401.987,108.662c0.138-0.086-1.281-0.646-3.148-1.186c-1.863-0.552-4.176-1.046-5.729-1.309   C395.624,106.67,399.078,107.683,401.987,108.662z" fill="#202020"/><path d="M188.567,106.039l-4.966-0.208C185.356,105.955,186.256,106.017,188.567,106.039z" fill="#202020"/><path d="M112.031,113.184c-0.145,0.051-0.511,0.094-1.005,0.134C111.521,113.285,111.865,113.241,112.031,113.184z" fill="#202020"/><path d="M111.026,113.318c-3.394,0.217-13.871-0.121-17.637,0.21l0.478-0.101l-7.01,0.197   C93.428,113.594,107.221,113.635,111.026,113.318z" fill="#202020"/></g></svg>