<?xml version="1.0" encoding="UTF-8"?>
<!DOCTYPE svg PUBLIC "-//W3C//DTD SVG 1.1//EN" "http://www.w3.org/Graphics/SVG/1.1/DTD/svg11.dtd">
<svg xmlns="http://www.w3.org/2000/svg" version="1.1" width="213px" height="170px" style="shape-rendering:geometricPrecision; text-rendering:geometricPrecision; image-rendering:optimizeQuality; fill-rule:evenodd; clip-rule:evenodd" xmlns:xlink="http://www.w3.org/1999/xlink">
<g><path style="opacity:1" fill="#fdfcfc" d="M -0.5,-0.5 C 70.5,-0.5 141.5,-0.5 212.5,-0.5C 212.5,56.1667 212.5,112.833 212.5,169.5C 164.833,169.5 117.167,169.5 69.5,169.5C 69.5,146.167 69.5,122.833 69.5,99.5C 46.1667,99.5 22.8333,99.5 -0.5,99.5C -0.5,66.1667 -0.5,32.8333 -0.5,-0.5 Z"/></g>
<g><path style="opacity:1" fill="#4bc4cf" d="M 118.5,33.5 C 118.5,33.8333 118.5,34.1667 118.5,34.5C 117.876,34.0831 117.543,33.4164 117.5,32.5C 118.674,24.8195 121.508,17.8195 126,11.5C 127.242,10.1279 128.742,9.12794 130.5,8.5C 131.316,10.2873 132.316,11.9539 133.5,13.5C 126.233,18.4377 121.233,25.1043 118.5,33.5 Z"/></g>
<g><path style="opacity:1" fill="#ff4d37" d="M 89.5,14.5 C 101.819,16.8088 108.986,24.1422 111,36.5C 107.88,31.0461 103.713,26.5461 98.5,23C 95.6074,21.8512 92.6074,21.3512 89.5,21.5C 89.5,19.1667 89.5,16.8333 89.5,14.5 Z"/></g>
<g><path style="opacity:1" fill="#ffe292" d="M 114.5,11.5 C 115.207,13.2307 116.207,14.8974 117.5,16.5C 115.803,17.3636 114.637,18.6969 114,20.5C 112.829,19.1068 111.329,18.2735 109.5,18C 110.38,16.6439 110.714,15.1439 110.5,13.5C 112.38,13.7709 113.713,13.1042 114.5,11.5 Z"/></g>
<g><path style="opacity:1" fill="#ed355c" d="M 111.5,21.5 C 112.995,21.4148 113.995,22.0815 114.5,23.5C 113.41,27.8537 113.243,32.1871 114,36.5C 110.785,31.8787 109.952,26.8787 111.5,21.5 Z"/></g>
<g><path style="opacity:1" fill="#ffce51" d="M 138.5,19.5 C 140,21.1841 141.667,22.8507 143.5,24.5C 140.771,25.0618 139.271,26.7285 139,29.5C 137.4,28.1341 135.567,27.1341 133.5,26.5C 134.767,24.6293 134.767,22.7959 133.5,21C 134.549,20.5078 135.549,20.6744 136.5,21.5C 137.522,21.1445 138.189,20.4778 138.5,19.5 Z"/></g>
<g><path style="opacity:1" fill="#ed5a31" d="M 83.5,19.5 C 84.404,20.209 84.7373,21.209 84.5,22.5C 88.5,23.1667 88.5,23.8333 84.5,24.5C 84.719,25.675 84.3857,26.675 83.5,27.5C 82.2813,26.3539 80.9479,25.3539 79.5,24.5C 80.8333,23.5 80.8333,22.5 79.5,21.5C 80.9492,20.8281 82.2825,20.1614 83.5,19.5 Z"/></g>
<g><path style="opacity:1" fill="#ffd25f" d="M 127.5,22.5 C 128.309,23.4687 129.309,24.3021 130.5,25C 129.333,25.5 128.5,26.3333 128,27.5C 126.933,26.8095 125.766,26.3095 124.5,26C 125.365,24.6412 126.365,23.4745 127.5,22.5 Z"/></g>
<g><path style="opacity:1" fill="#f6ad98" d="M 97.5,24.5 C 98.3063,25.8675 99.3063,27.2008 100.5,28.5C 98.6633,32.0916 96.3299,32.4249 93.5,29.5C 94.8333,28.5 94.8333,27.5 93.5,26.5C 94.9492,25.8281 96.2825,25.1614 97.5,24.5 Z"/></g>
<g><path style="opacity:1" fill="#ee2e58" d="M 120.5,35.5 C 123.686,31.9072 127.686,29.9072 132.5,29.5C 132.5,30.8333 132.5,32.1667 132.5,33.5C 126.301,33.6829 121.468,36.3496 118,41.5C 118.451,39.4802 119.284,37.4802 120.5,35.5 Z"/></g>
<g><path style="opacity:1" fill="#ffcb45" d="M 94.5,34.5 C 100.646,34.0483 105.979,35.8816 110.5,40C 107.297,39.1079 103.963,38.2745 100.5,37.5C 98.0632,37.5984 96.0632,38.5984 94.5,40.5C 93.5,39.1667 92.5,37.8333 91.5,36.5C 92.6016,35.8243 93.6016,35.1577 94.5,34.5 Z"/></g>
<g><path style="opacity:1" fill="#92dd49" d="M 118.5,33.5 C 119.833,33.5 120.5,34.1667 120.5,35.5C 119.508,35.6716 118.842,35.3382 118.5,34.5C 118.5,34.1667 118.5,33.8333 118.5,33.5 Z"/></g>
<g><path style="opacity:1" fill="#fc5a1e" d="M 133.5,34.5 C 137.846,34.3343 142.179,34.501 146.5,35C 149.063,37.1841 148.729,39.0174 145.5,40.5C 138.238,38.4336 130.905,37.9336 123.5,39C 126.893,37.38 130.226,35.88 133.5,34.5 Z"/></g>
<g><path style="opacity:1" fill="#8cbc2f" d="M 100.5,40.5 C 102.745,40.5412 103.412,41.3745 102.5,43C 93.7897,44.1834 86.7897,48.1834 81.5,55C 78.7158,55.4172 76.7158,54.2505 75.5,51.5C 82.5943,44.9167 90.9277,41.2501 100.5,40.5 Z"/></g>
<g><path style="opacity:1" fill="#fed15b" d="M 119.5,43.5 C 125.157,43.1605 130.157,44.8272 134.5,48.5C 131.706,51.1354 129.373,50.6354 127.5,47C 124.576,46.0124 121.576,45.3457 118.5,45C 119.056,44.6174 119.389,44.1174 119.5,43.5 Z"/></g>
<g><path style="opacity:1" fill="#ff4572" d="M 105.5,44.5 C 107.857,44.3367 110.19,44.5034 112.5,45C 106.624,45.5949 102.624,48.5949 100.5,54C 97.8659,54.9248 96.6992,54.0915 97,51.5C 99.4412,48.5464 102.275,46.2131 105.5,44.5 Z"/></g>
<g><path style="opacity:1" fill="#bfdb8f" d="M 144.5,45.5 C 146.026,46.1047 147.026,47.2714 147.5,49C 146.299,49.9025 145.465,51.0692 145,52.5C 144.097,51.2986 142.931,50.4652 141.5,50C 142.833,49 142.833,48 141.5,47C 142.737,46.7679 143.737,46.2679 144.5,45.5 Z"/></g>
<g><path style="opacity:1" fill="#5ec9d3" d="M 54.5,49.5 C 57.9607,51.5908 57.9607,53.5908 54.5,55.5C 53.5,55 52.5,54.5 51.5,54C 52.8333,53 52.8333,52 51.5,51C 52.7375,50.7679 53.7375,50.2679 54.5,49.5 Z"/></g>
<g><path style="opacity:1" fill="#ffd258" d="M 108.5,48.5 C 109.239,48.369 109.906,48.5357 110.5,49C 109,50.5 107.5,52 106,53.5C 106.058,51.5646 106.891,49.8979 108.5,48.5 Z"/></g>
<g><path style="opacity:1" fill="#ef3156" d="M 112.5,49.5 C 113.043,49.56 113.376,49.8933 113.5,50.5C 110.889,56.473 110.889,62.473 113.5,68.5C 112.15,69.9501 110.484,70.6168 108.5,70.5C 106.315,62.7765 107.649,55.7765 112.5,49.5 Z"/></g>
<g><path style="opacity:1" fill="#ef4264" d="M 118.5,49.5 C 118.897,48.475 119.563,48.3083 120.5,49C 123.798,51.4636 126.132,54.6303 127.5,58.5C 126.675,59.3857 125.675,59.719 124.5,59.5C 124.023,55.2066 122.023,51.8733 118.5,49.5 Z"/></g>
<g><path style="opacity:1" fill="#ee5193" d="M 127.5,52.5 C 127.56,51.9569 127.893,51.6236 128.5,51.5C 137.19,54.1451 142.523,59.8118 144.5,68.5C 142.833,68.5 141.167,68.5 139.5,68.5C 138.207,61.198 134.207,55.8647 127.5,52.5 Z"/></g>
<g><path style="opacity:1" fill="#69cdd6" d="M 146.5,54.5 C 149.184,53.1537 151.517,53.8203 153.5,56.5C 151.663,60.0916 149.33,60.4249 146.5,57.5C 147.653,56.3132 147.653,55.3132 146.5,54.5 Z"/></g>
<g><path style="opacity:1" fill="#ffca3e" d="M 101.5,55.5 C 102.756,55.4614 103.756,55.9614 104.5,57C 100.535,64.77 99.5351,72.9366 101.5,81.5C 98.8333,81.8333 96.1667,82.1667 93.5,82.5C 93.3479,72.6266 96.0146,63.6266 101.5,55.5 Z"/></g>
<g><path style="opacity:1" fill="#66d3da" d="M 116.5,57.5 C 119.106,59.4211 119.106,61.4211 116.5,63.5C 114.227,62.6249 113.227,60.9582 113.5,58.5C 114.791,58.7373 115.791,58.404 116.5,57.5 Z"/></g>
<g><path style="opacity:1" fill="#f17c5b" d="M 29.5,59.5 C 31.0927,58.1328 32.4261,58.4661 33.5,60.5C 33.1924,61.3081 32.6924,61.9747 32,62.5C 31.1482,61.4293 30.3149,60.4293 29.5,59.5 Z"/></g>
<g><path style="opacity:1" fill="#f39175" d="M 170.5,56.5 C 171.306,57.8675 172.306,59.2008 173.5,60.5C 172.354,61.7187 171.354,63.0521 170.5,64.5C 169.281,63.3539 167.948,62.3539 166.5,61.5C 167.833,60.5 167.833,59.5 166.5,58.5C 167.949,57.8281 169.282,57.1614 170.5,56.5 Z"/></g>
<g><path style="opacity:1" fill="#78d3db" d="M 80.5,60.5 C 84.0015,61.8345 84.1682,63.5011 81,65.5C 77.9143,63.9981 77.7476,62.3315 80.5,60.5 Z"/></g>
<g><path style="opacity:1" fill="#ec3678" d="M 116.5,50.5 C 122.14,57.4183 124.806,65.4183 124.5,74.5C 122.833,74.5 121.167,74.5 119.5,74.5C 120.213,66.219 119.213,58.219 116.5,50.5 Z"/></g>
<g><path style="opacity:1" fill="#84bd2d" d="M 86.5,63.5 C 89.5476,63.494 90.0476,64.494 88,66.5C 86.9614,65.7562 86.4614,64.7562 86.5,63.5 Z"/></g>
<g><path style="opacity:1" fill="#ffdc80" d="M 158.5,64.5 C 159.688,65.6843 160.855,65.6843 162,64.5C 162.645,65.646 163.478,66.646 164.5,67.5C 163.5,68.5 162.5,69.5 161.5,70.5C 157.838,70.1616 157.171,68.995 159.5,67C 158.748,66.3292 158.414,65.4959 158.5,64.5 Z"/></g>
<g><path style="opacity:1" fill="#86c237" d="M 51.5,66.5 C 52.7498,66.5774 53.5831,67.244 54,68.5C 54.6667,71.1667 54.6667,73.8333 54,76.5C 53.4424,73.0662 52.609,69.7328 51.5,66.5 Z"/></g>
<g><path style="opacity:1" fill="#ffcc49" d="M 131.5,69.5 C 133.852,70.5426 134.019,71.8759 132,73.5C 130.232,72.3181 130.065,70.9848 131.5,69.5 Z"/></g>
<g><path style="opacity:1" fill="#fe513e" d="M 151.5,69.5 C 158.529,70.6984 162.696,74.6984 164,81.5C 160.953,76.9305 156.787,74.2638 151.5,73.5C 151.5,72.1667 151.5,70.8333 151.5,69.5 Z"/></g>
<g><path style="opacity:1" fill="#fb441a" d="M 58.5,73.5 C 59.8366,72.6851 60.8366,71.5185 61.5,70C 62.635,69.2506 63.635,69.4173 64.5,70.5C 62.5171,71.982 60.6837,73.6487 59,75.5C 58.5357,74.9056 58.369,74.2389 58.5,73.5 Z"/></g>
<g><path style="opacity:1" fill="#59c9d4" d="M 176.5,65.5 C 177.391,66.2613 178.058,67.2613 178.5,68.5C 174.283,72.8734 171.117,77.8734 169,83.5C 169.059,76.492 171.559,70.492 176.5,65.5 Z"/></g>
<g><path style="opacity:1" fill="#ee5d34" d="M 186.5,66.5 C 188.088,67.6413 189.421,69.1413 190.5,71C 188.667,71.5 187.5,72.6667 187,74.5C 185.491,73.9103 183.991,73.2436 182.5,72.5C 183.833,71.1667 183.833,69.8333 182.5,68.5C 183.391,67.4104 184.391,67.4104 185.5,68.5C 186.298,68.0431 186.631,67.3764 186.5,66.5 Z"/></g>
<g><path style="opacity:1" fill="#f9456f" d="M 58.5,73.5 C 57.6851,74.4293 56.8518,75.4293 56,76.5C 55.7638,74.7002 56.2638,73.0335 57.5,71.5C 58.2975,71.9569 58.6309,72.6236 58.5,73.5 Z"/></g>
<g><path style="opacity:1" fill="#f2375c" d="M 42.5,74.5 C 44.4286,74.2308 46.0953,74.7308 47.5,76C 46.6667,76.1667 45.8333,76.3333 45,76.5C 43.6244,76.3158 42.7911,75.6491 42.5,74.5 Z"/></g>
<g><path style="opacity:1" fill="#f0375a" d="M 165.5,74.5 C 166.376,74.3691 167.043,74.7025 167.5,75.5C 166.846,77.1151 166.346,78.7818 166,80.5C 164.388,78.5442 164.222,76.5442 165.5,74.5 Z"/></g>
<g><path style="opacity:1" fill="#ffbba8" d="M 52.5,78.5 C 51.8333,79.5 51.1667,80.5 50.5,81.5C 49.5084,81.6716 48.8417,81.3382 48.5,80.5C 48.5,80.1667 48.5,79.8333 48.5,79.5C 51.8733,78.0685 52.2066,76.0685 49.5,73.5C 49.8333,73.1667 50.1667,72.8333 50.5,72.5C 52.0863,74.1727 52.7529,76.1727 52.5,78.5 Z"/></g>
<g><path style="opacity:1" fill="#ff588f" d="M 58.5,77.5 C 60.288,77.2148 61.9547,77.5481 63.5,78.5C 61.5787,79.641 59.5787,79.8077 57.5,79C 58.056,78.6174 58.3893,78.1174 58.5,77.5 Z"/></g>
<g><path style="opacity:1" fill="#fb4c20" d="M 48.5,79.5 C 48.5,79.8333 48.5,80.1667 48.5,80.5C 45.8431,80.162 43.5098,80.8287 41.5,82.5C 40.6143,81.675 40.281,80.675 40.5,79.5C 43.1667,79.5 45.8333,79.5 48.5,79.5 Z"/></g>
<g><path style="opacity:1" fill="#ec294d" d="M 174.5,79.5 C 175.978,79.238 177.311,79.5713 178.5,80.5C 176.279,81.9575 173.946,82.7908 171.5,83C 172.71,81.9609 173.71,80.7942 174.5,79.5 Z"/></g>
<g><path style="opacity:1" fill="#ffd451" d="M 50.5,82.5 C 50.5,82.1667 50.5,81.8333 50.5,81.5C 51.1667,80.5 51.8333,79.5 52.5,78.5C 53.9498,77.3424 54.9498,77.8424 55.5,80C 58.5,80.3333 61.5,80.6667 64.5,81C 66.0016,81.5831 67.3349,82.4164 68.5,83.5C 68.1924,84.3081 67.6924,84.9747 67,85.5C 62.9554,81.5657 58.6221,80.8991 54,83.5C 52.9887,82.6634 51.8221,82.33 50.5,82.5 Z"/></g>
<g><path style="opacity:1" fill="#84d7de" d="M 146.5,79.5 C 151.02,80.9753 151.354,82.9753 147.5,85.5C 143.138,84.6707 142.804,82.6707 146.5,79.5 Z"/></g>
<g><path style="opacity:1" fill="#fed555" d="M 153.5,82.5 C 158.14,81.736 162.14,82.9026 165.5,86C 163.384,85.7179 161.217,85.2179 159,84.5C 157.175,84.9434 155.342,85.2767 153.5,85.5C 153.5,84.5 153.5,83.5 153.5,82.5 Z"/></g>
<g><path style="opacity:1" fill="#ffcf47" d="M 177.5,82.5 C 181.167,82.5 184.833,82.5 188.5,82.5C 188.688,84.1033 188.188,85.4366 187,86.5C 184.923,85.0423 182.59,84.3757 180,84.5C 177.46,84.8958 174.96,85.0625 172.5,85C 174.315,84.2432 175.981,83.4098 177.5,82.5 Z"/></g>
<g><path style="opacity:1" fill="#ffd15d" d="M 34.5,82.5 C 39.0135,82.5397 40.0135,84.2063 37.5,87.5C 35.2275,86.6249 34.2275,84.9582 34.5,82.5 Z"/></g>
<g><path style="opacity:1" fill="#fa7a8f" d="M 50.5,82.5 C 49.4382,84.7565 47.7715,85.9232 45.5,86C 46.7893,84.1978 48.4559,83.0312 50.5,82.5 Z"/></g>
<g><path style="opacity:1" fill="#ef6f4b" d="M 74.5,82.5 C 78.0049,81.1735 78.8383,82.1735 77,85.5C 74.8982,84.8799 74.0649,83.8799 74.5,82.5 Z"/></g>
<g><path style="opacity:1" fill="#93c345" d="M 119.5,81.5 C 120.452,82.452 121.452,83.452 122.5,84.5C 121.478,85.354 120.645,86.354 120,87.5C 115.843,86.0574 115.677,84.0574 119.5,81.5 Z"/></g>
<g><path style="opacity:1" fill="#ff6b9e" d="M 56.5,84.5 C 56.56,83.9569 56.8933,83.6236 57.5,83.5C 59.8628,85.1138 60.5295,87.1138 59.5,89.5C 58.6751,87.6404 57.6751,85.9738 56.5,84.5 Z"/></g>
<g><path style="opacity:1" fill="#eb1149" d="M 53.5,86.5 C 54.8003,89.0241 54.8003,91.6908 53.5,94.5C 53.0509,91.9564 53.0509,89.2898 53.5,86.5 Z"/></g>
<g><path style="opacity:1" fill="#ffd458" d="M 161.5,88.5 C 162.873,88.3433 164.207,88.51 165.5,89C 162.421,90.2477 159.754,92.0811 157.5,94.5C 156.479,93.9984 156.312,93.3317 157,92.5C 158.397,90.9297 159.897,89.5964 161.5,88.5 Z"/></g>
<g><path style="opacity:1" fill="#ff4b8d" d="M 173.5,89.5 C 175.666,88.3711 177.666,88.8711 179.5,91C 179,91.5 178.5,92 178,92.5C 176.871,90.8588 175.371,89.8588 173.5,89.5 Z"/></g>
<g><path style="opacity:1" fill="#9dca55" d="M 180.5,86.5 C 181.473,87.7914 182.473,87.7914 183.5,86.5C 186.215,88.5505 186.048,90.2172 183,91.5C 181.108,90.3826 180.275,88.7159 180.5,86.5 Z"/></g>
<g><path style="opacity:1" fill="#fb571f" d="M 155.5,86.5 C 157.527,86.3379 159.527,86.5045 161.5,87C 155.493,87.836 150.493,90.5026 146.5,95C 144.799,95.3446 143.466,94.6779 142.5,93C 146.394,89.7195 150.727,87.5528 155.5,86.5 Z"/></g>
<g><path style="opacity:1" fill="#ffcf4e" d="M 49.5,85.5 C 49.8051,87.9193 49.8051,90.586 49.5,93.5C 48.325,93.719 47.325,93.3857 46.5,92.5C 47.3124,90.0554 48.3124,87.7221 49.5,85.5 Z"/></g>
<g><path style="opacity:1" fill="#ffd66a" d="M 25.5,89.5 C 27.0348,90.8439 28.3681,92.5106 29.5,94.5C 28.675,95.3857 27.675,95.719 26.5,95.5C 26.6495,96.552 26.4828,97.552 26,98.5C 24.6932,97.2283 23.1932,96.2283 21.5,95.5C 22.7111,94.2798 22.7111,93.1131 21.5,92C 23.437,91.8784 24.7703,91.045 25.5,89.5 Z"/></g>
<g><path style="opacity:1" fill="#ed5e3a" d="M 151.5,92.5 C 153.337,92.6395 153.67,93.3061 152.5,94.5C 151.702,94.0431 151.369,93.3764 151.5,92.5 Z"/></g>
<g><path style="opacity:1" fill="#f6b09c" d="M 72.5,90.5 C 73.2485,91.531 73.9152,92.6976 74.5,94C 73.2986,94.9025 72.4652,96.0692 72,97.5C 70.7949,96.9288 69.6283,96.2621 68.5,95.5C 69.7111,94.2798 69.7111,93.1131 68.5,92C 70.0581,91.79 71.3915,91.29 72.5,90.5 Z"/></g>
<g><path style="opacity:1" fill="#f54c6b" d="M 170.5,92.5 C 170.897,91.475 171.563,91.3083 172.5,92C 173.376,93.586 174.376,95.086 175.5,96.5C 175.167,96.8333 174.833,97.1667 174.5,97.5C 173.388,95.5808 172.054,93.9142 170.5,92.5 Z"/></g>
<g><path style="opacity:1" fill="#ee3157" d="M 166.5,90.5 C 165.344,94.8716 165.344,99.5383 166.5,104.5C 165.5,104.5 164.5,104.5 163.5,104.5C 162.909,99.4361 163.909,94.7695 166.5,90.5 Z"/></g>
<g><path style="opacity:1" fill="#47c4d0" d="M 162.5,91.5 C 163.239,91.369 163.906,91.5357 164.5,92C 159.258,97.2233 157.591,103.39 159.5,110.5C 157.955,111.452 156.288,111.785 154.5,111.5C 154.394,103.714 157.06,97.0473 162.5,91.5 Z"/></g>
<g><path style="opacity:1" fill="#242020" d="M -0.5,99.5 C 22.8333,99.5 46.1667,99.5 69.5,99.5C 69.5,122.833 69.5,146.167 69.5,169.5C 46.1667,169.5 22.8333,169.5 -0.5,169.5C -0.5,146.167 -0.5,122.833 -0.5,99.5 Z"/></g>
<g><path style="opacity:1" fill="#ed4f90" d="M 176.5,94.5 C 177.721,93.5354 179.054,93.702 180.5,95C 183.712,97.0194 185.378,99.8527 185.5,103.5C 184.5,103.5 183.5,103.5 182.5,103.5C 182.256,99.348 180.256,96.348 176.5,94.5 Z"/></g>
<g><path style="opacity:1" fill="#8ac13c" d="M 168.5,92.5 C 172.334,96.6675 174,101.668 173.5,107.5C 172.5,107.5 171.5,107.5 170.5,107.5C 170.909,102.308 170.242,97.3077 168.5,92.5 Z"/></g>
<g><path style="opacity:1" fill="#ffebb6" d="M 149.5,98.5 C 151.057,99.4663 152.39,100.8 153.5,102.5C 152.066,103.23 150.9,104.23 150,105.5C 148.601,104.773 147.101,104.273 145.5,104C 147.394,102.921 147.727,101.587 146.5,100C 147.737,99.7679 148.737,99.2679 149.5,98.5 Z"/></g>
<g><path style="opacity:1" fill="#ffd66a" d="M 174.5,99.5 C 175.5,99.5 176.5,99.5 177.5,99.5C 177.5,100.5 177.5,101.5 177.5,102.5C 176.5,102.5 175.5,102.5 174.5,102.5C 174.5,101.5 174.5,100.5 174.5,99.5 Z"/></g>
<g><path style="opacity:1" fill="#bbd988" d="M 166.5,106.5 C 167.364,107.688 168.364,108.855 169.5,110C 165.94,113.392 163.94,112.559 163.5,107.5C 164.791,107.737 165.791,107.404 166.5,106.5 Z"/></g>
<g><path style="opacity:1" fill="#f0f0f0" d="M 38.5,123.5 C 40.4563,129.412 41.1229,135.745 40.5,142.5C 44.5546,142.176 48.5546,142.509 52.5,143.5C 47.8804,144.493 43.2137,144.827 38.5,144.5C 38.5,137.5 38.5,130.5 38.5,123.5 Z"/></g>
<g><path style="opacity:1" fill="#2d2d2d" d="M 181.5,123.5 C 185.161,123.35 186.161,124.85 184.5,128C 180.707,128.487 179.707,126.987 181.5,123.5 Z"/></g>
<g><path style="opacity:1" fill="#181818" d="M 191.5,124.5 C 193.167,124.5 194.833,124.5 196.5,124.5C 196.5,125.5 196.5,126.5 196.5,127.5C 194.654,127.222 193.32,127.889 192.5,129.5C 193.689,130.429 195.022,130.762 196.5,130.5C 196.5,131.5 196.5,132.5 196.5,133.5C 195.5,133.5 194.5,133.5 193.5,133.5C 193.5,136.833 193.5,140.167 193.5,143.5C 192.167,143.5 190.833,143.5 189.5,143.5C 189.923,139.449 189.256,135.616 187.5,132C 188.909,129.471 190.242,126.971 191.5,124.5 Z"/></g>
<g><path style="opacity:1" fill="#171717" d="M 91.5,125.5 C 94.5448,125.508 97.5448,125.841 100.5,126.5C 100.5,127.5 100.5,128.5 100.5,129.5C 97.5,129.5 94.5,129.5 91.5,129.5C 91.281,130.675 91.6143,131.675 92.5,132.5C 95.7427,133.015 98.5761,134.348 101,136.5C 101.241,141.759 98.5742,144.092 93,143.5C 89.4059,144.283 87.5726,142.95 87.5,139.5C 89.4878,139.827 91.4878,140.16 93.5,140.5C 95.3186,140.658 96.6519,139.991 97.5,138.5C 94.147,137.202 90.9803,135.535 88,133.5C 86.7801,129.707 87.9468,127.04 91.5,125.5 Z"/></g>
<g><path style="opacity:1" fill="#101010" d="M 166.5,125.5 C 167.833,125.5 169.167,125.5 170.5,125.5C 170.5,130.5 170.5,135.5 170.5,140.5C 173.167,140.5 175.833,140.5 178.5,140.5C 178.5,141.5 178.5,142.5 178.5,143.5C 174.5,143.5 170.5,143.5 166.5,143.5C 166.5,137.5 166.5,131.5 166.5,125.5 Z"/></g>
<g><path style="opacity:1" fill="#151515" d="M 148.5,127.5 C 149.833,127.5 151.167,127.5 152.5,127.5C 152.5,128.5 152.5,129.5 152.5,130.5C 153.5,130.5 154.5,130.5 155.5,130.5C 155.5,131.5 155.5,132.5 155.5,133.5C 154.5,133.5 153.5,133.5 152.5,133.5C 152.5,135.833 152.5,138.167 152.5,140.5C 153.833,140.5 155.167,140.5 156.5,140.5C 156.5,141.5 156.5,142.5 156.5,143.5C 153.635,143.945 151.135,143.278 149,141.5C 148.866,138.128 148.032,134.961 146.5,132C 147.707,130.7 148.374,129.2 148.5,127.5 Z"/></g>
<g><path style="opacity:1" fill="#5f5f5f" d="M 108.5,130.5 C 107.687,131.653 106.687,131.653 105.5,130.5C 104.504,136.463 104.171,142.463 104.5,148.5C 103.51,142.355 103.177,136.022 103.5,129.5C 105.292,129.366 106.958,129.699 108.5,130.5 Z"/></g>
<g><path style="opacity:1" fill="#131313" d="M 104.5,148.5 C 104.171,142.463 104.504,136.463 105.5,130.5C 106.687,131.653 107.687,131.653 108.5,130.5C 113.939,128.889 117.272,130.889 118.5,136.5C 117.627,142.603 114.294,144.603 108.5,142.5C 107.534,144.396 107.201,146.396 107.5,148.5C 106.5,148.5 105.5,148.5 104.5,148.5 Z"/></g>
<g><path style="opacity:1" fill="#171717" d="M 125.5,129.5 C 132.685,129.848 135.519,133.515 134,140.5C 124.277,146.435 119.944,143.768 121,132.5C 122.652,131.601 124.152,130.601 125.5,129.5 Z"/></g>
<g><path style="opacity:1" fill="#1b1b1b" d="M 137.5,129.5 C 139.881,130.42 142.214,130.42 144.5,129.5C 145.429,130.689 145.762,132.022 145.5,133.5C 144.178,133.33 143.011,133.663 142,134.5C 141.502,137.482 141.335,140.482 141.5,143.5C 140.167,143.5 138.833,143.5 137.5,143.5C 137.5,138.833 137.5,134.167 137.5,129.5 Z"/></g>
<g><path style="opacity:1" fill="#030303" d="M 181.5,130.5 C 182.5,130.5 183.5,130.5 184.5,130.5C 184.5,134.833 184.5,139.167 184.5,143.5C 183.5,143.5 182.5,143.5 181.5,143.5C 181.5,139.167 181.5,134.833 181.5,130.5 Z"/></g>
<g><path style="opacity:1" fill="#6a6a6a" d="M 181.5,130.5 C 182.568,129.566 183.901,129.232 185.5,129.5C 185.819,134.363 185.486,139.03 184.5,143.5C 184.5,139.167 184.5,134.833 184.5,130.5C 183.5,130.5 182.5,130.5 181.5,130.5 Z"/></g>
<g><path style="opacity:1" fill="#121212" d="M 201.5,129.5 C 207.709,128.749 210.709,131.415 210.5,137.5C 207.428,137.183 204.428,137.516 201.5,138.5C 203.315,140.694 205.482,141.028 208,139.5C 210.167,141 210,142.167 207.5,143C 199.614,144.447 196.447,141.28 198,133.5C 199.376,132.295 200.542,130.962 201.5,129.5 Z"/></g>
<g><path style="opacity:1" fill="#e6e6e6" d="M 21.5,123.5 C 24.5184,123.335 27.5184,123.502 30.5,124C 31.3081,124.308 31.9747,124.808 32.5,125.5C 29.2832,125.658 25.9499,125.825 22.5,126C 19.8333,128 19.8333,130 22.5,132C 26.3259,132.832 29.8259,134.332 33,136.5C 34.271,140.166 33.1044,142.666 29.5,144C 26.5,144.667 23.5,144.667 20.5,144C 18.842,143.275 18.342,142.108 19,140.5C 22.2559,142.429 25.7559,142.929 29.5,142C 31.5268,140.604 31.8602,138.938 30.5,137C 26.2049,136.102 22.3716,134.269 19,131.5C 18.0182,128.225 18.8515,125.559 21.5,123.5 Z"/></g>
<g><path style="opacity:1" fill="#e5e5e5" d="M 108.5,133.5 C 113.895,132.555 115.561,134.555 113.5,139.5C 108.193,140.795 106.526,138.795 108.5,133.5 Z"/></g>
<g><path style="opacity:1" fill="#e7e7e7" d="M 124.5,133.5 C 130.158,132.679 131.825,134.846 129.5,140C 124.262,140.594 122.595,138.427 124.5,133.5 Z"/></g>
<g><path style="opacity:1" fill="#e4e4e4" d="M 202.5,132.5 C 204.484,132.383 206.15,133.05 207.5,134.5C 205.5,135.833 203.5,135.833 201.5,134.5C 201.863,133.817 202.196,133.15 202.5,132.5 Z"/></g>
</svg>
